%TF.GenerationSoftware,KiCad,Pcbnew,8.0.1*%
%TF.CreationDate,2024-04-15T20:02:08-07:00*%
%TF.ProjectId,Ideal OR Diode,49646561-6c20-44f5-9220-44696f64652e,1.0*%
%TF.SameCoordinates,Original*%
%TF.FileFunction,Drillmap*%
%TF.FilePolarity,Positive*%
%FSLAX45Y45*%
G04 Gerber Fmt 4.5, Leading zero omitted, Abs format (unit mm)*
G04 Created by KiCad (PCBNEW 8.0.1) date 2024-04-15 20:02:08*
%MOMM*%
%LPD*%
G01*
G04 APERTURE LIST*
%ADD10C,0.100000*%
%ADD11C,0.200000*%
%ADD12C,0.160000*%
G04 APERTURE END LIST*
D10*
X11400000Y-6080000D02*
X15290000Y-6080000D01*
X15290000Y-10570000D01*
X11400000Y-10570000D01*
X11400000Y-6080000D01*
D11*
D10*
X11669000Y-7097000D02*
X11699000Y-7127000D01*
X11699000Y-7097000D02*
X11669000Y-7127000D01*
X11669000Y-7351000D02*
X11699000Y-7381000D01*
X11699000Y-7351000D02*
X11669000Y-7381000D01*
X11669000Y-7859000D02*
X11699000Y-7889000D01*
X11699000Y-7859000D02*
X11669000Y-7889000D01*
X11669000Y-8113000D02*
X11699000Y-8143000D01*
X11699000Y-8113000D02*
X11669000Y-8143000D01*
X11669000Y-8621000D02*
X11699000Y-8651000D01*
X11699000Y-8621000D02*
X11669000Y-8651000D01*
X11669000Y-9129000D02*
X11699000Y-9159000D01*
X11699000Y-9129000D02*
X11669000Y-9159000D01*
X11669000Y-9383000D02*
X11699000Y-9413000D01*
X11699000Y-9383000D02*
X11669000Y-9413000D01*
X11923000Y-6335000D02*
X11953000Y-6365000D01*
X11953000Y-6335000D02*
X11923000Y-6365000D01*
X11923000Y-6589000D02*
X11953000Y-6619000D01*
X11953000Y-6589000D02*
X11923000Y-6619000D01*
X11923000Y-6843000D02*
X11953000Y-6873000D01*
X11953000Y-6843000D02*
X11923000Y-6873000D01*
X11923000Y-7097000D02*
X11953000Y-7127000D01*
X11953000Y-7097000D02*
X11923000Y-7127000D01*
X11923000Y-7351000D02*
X11953000Y-7381000D01*
X11953000Y-7351000D02*
X11923000Y-7381000D01*
X11923000Y-7605000D02*
X11953000Y-7635000D01*
X11953000Y-7605000D02*
X11923000Y-7635000D01*
X11923000Y-7859000D02*
X11953000Y-7889000D01*
X11953000Y-7859000D02*
X11923000Y-7889000D01*
X11923000Y-8113000D02*
X11953000Y-8143000D01*
X11953000Y-8113000D02*
X11923000Y-8143000D01*
X11923000Y-8621000D02*
X11953000Y-8651000D01*
X11953000Y-8621000D02*
X11923000Y-8651000D01*
X11923000Y-8875000D02*
X11953000Y-8905000D01*
X11953000Y-8875000D02*
X11923000Y-8905000D01*
X11923000Y-9129000D02*
X11953000Y-9159000D01*
X11953000Y-9129000D02*
X11923000Y-9159000D01*
X11923000Y-9383000D02*
X11953000Y-9413000D01*
X11953000Y-9383000D02*
X11923000Y-9413000D01*
X11923000Y-9637000D02*
X11953000Y-9667000D01*
X11953000Y-9637000D02*
X11923000Y-9667000D01*
X11923000Y-9891000D02*
X11953000Y-9921000D01*
X11953000Y-9891000D02*
X11923000Y-9921000D01*
X11923000Y-10145000D02*
X11953000Y-10175000D01*
X11953000Y-10145000D02*
X11923000Y-10175000D01*
X11923000Y-10399000D02*
X11953000Y-10429000D01*
X11953000Y-10399000D02*
X11923000Y-10429000D01*
X12177000Y-6335000D02*
X12207000Y-6365000D01*
X12207000Y-6335000D02*
X12177000Y-6365000D01*
X12177000Y-6589000D02*
X12207000Y-6619000D01*
X12207000Y-6589000D02*
X12177000Y-6619000D01*
X12177000Y-6843000D02*
X12207000Y-6873000D01*
X12207000Y-6843000D02*
X12177000Y-6873000D01*
X12177000Y-7097000D02*
X12207000Y-7127000D01*
X12207000Y-7097000D02*
X12177000Y-7127000D01*
X12177000Y-7351000D02*
X12207000Y-7381000D01*
X12207000Y-7351000D02*
X12177000Y-7381000D01*
X12177000Y-7605000D02*
X12207000Y-7635000D01*
X12207000Y-7605000D02*
X12177000Y-7635000D01*
X12177000Y-7859000D02*
X12207000Y-7889000D01*
X12207000Y-7859000D02*
X12177000Y-7889000D01*
X12177000Y-8113000D02*
X12207000Y-8143000D01*
X12207000Y-8113000D02*
X12177000Y-8143000D01*
X12177000Y-8621000D02*
X12207000Y-8651000D01*
X12207000Y-8621000D02*
X12177000Y-8651000D01*
X12177000Y-8875000D02*
X12207000Y-8905000D01*
X12207000Y-8875000D02*
X12177000Y-8905000D01*
X12177000Y-9129000D02*
X12207000Y-9159000D01*
X12207000Y-9129000D02*
X12177000Y-9159000D01*
X12177000Y-9383000D02*
X12207000Y-9413000D01*
X12207000Y-9383000D02*
X12177000Y-9413000D01*
X12177000Y-9637000D02*
X12207000Y-9667000D01*
X12207000Y-9637000D02*
X12177000Y-9667000D01*
X12177000Y-9891000D02*
X12207000Y-9921000D01*
X12207000Y-9891000D02*
X12177000Y-9921000D01*
X12177000Y-10145000D02*
X12207000Y-10175000D01*
X12207000Y-10145000D02*
X12177000Y-10175000D01*
X12177000Y-10399000D02*
X12207000Y-10429000D01*
X12207000Y-10399000D02*
X12177000Y-10429000D01*
X12431000Y-6335000D02*
X12461000Y-6365000D01*
X12461000Y-6335000D02*
X12431000Y-6365000D01*
X12431000Y-6589000D02*
X12461000Y-6619000D01*
X12461000Y-6589000D02*
X12431000Y-6619000D01*
X12431000Y-7097000D02*
X12461000Y-7127000D01*
X12461000Y-7097000D02*
X12431000Y-7127000D01*
X12431000Y-7351000D02*
X12461000Y-7381000D01*
X12461000Y-7351000D02*
X12431000Y-7381000D01*
X12431000Y-7859000D02*
X12461000Y-7889000D01*
X12461000Y-7859000D02*
X12431000Y-7889000D01*
X12431000Y-8113000D02*
X12461000Y-8143000D01*
X12461000Y-8113000D02*
X12431000Y-8143000D01*
X12431000Y-8621000D02*
X12461000Y-8651000D01*
X12461000Y-8621000D02*
X12431000Y-8651000D01*
X12431000Y-9129000D02*
X12461000Y-9159000D01*
X12461000Y-9129000D02*
X12431000Y-9159000D01*
X12431000Y-9383000D02*
X12461000Y-9413000D01*
X12461000Y-9383000D02*
X12431000Y-9413000D01*
X12431000Y-9891000D02*
X12461000Y-9921000D01*
X12461000Y-9891000D02*
X12431000Y-9921000D01*
X12431000Y-10145000D02*
X12461000Y-10175000D01*
X12461000Y-10145000D02*
X12431000Y-10175000D01*
X12431000Y-10399000D02*
X12461000Y-10429000D01*
X12461000Y-10399000D02*
X12431000Y-10429000D01*
X12685000Y-6335000D02*
X12715000Y-6365000D01*
X12715000Y-6335000D02*
X12685000Y-6365000D01*
X12685000Y-6589000D02*
X12715000Y-6619000D01*
X12715000Y-6589000D02*
X12685000Y-6619000D01*
X12685000Y-7097000D02*
X12715000Y-7127000D01*
X12715000Y-7097000D02*
X12685000Y-7127000D01*
X12685000Y-7351000D02*
X12715000Y-7381000D01*
X12715000Y-7351000D02*
X12685000Y-7381000D01*
X12685000Y-7859000D02*
X12715000Y-7889000D01*
X12715000Y-7859000D02*
X12685000Y-7889000D01*
X12685000Y-8113000D02*
X12715000Y-8143000D01*
X12715000Y-8113000D02*
X12685000Y-8143000D01*
X12685000Y-8621000D02*
X12715000Y-8651000D01*
X12715000Y-8621000D02*
X12685000Y-8651000D01*
X12685000Y-9129000D02*
X12715000Y-9159000D01*
X12715000Y-9129000D02*
X12685000Y-9159000D01*
X12685000Y-9383000D02*
X12715000Y-9413000D01*
X12715000Y-9383000D02*
X12685000Y-9413000D01*
X12685000Y-9891000D02*
X12715000Y-9921000D01*
X12715000Y-9891000D02*
X12685000Y-9921000D01*
X12685000Y-10145000D02*
X12715000Y-10175000D01*
X12715000Y-10145000D02*
X12685000Y-10175000D01*
X12685000Y-10399000D02*
X12715000Y-10429000D01*
X12715000Y-10399000D02*
X12685000Y-10429000D01*
X12939000Y-6335000D02*
X12969000Y-6365000D01*
X12969000Y-6335000D02*
X12939000Y-6365000D01*
X12939000Y-6589000D02*
X12969000Y-6619000D01*
X12969000Y-6589000D02*
X12939000Y-6619000D01*
X12939000Y-6843000D02*
X12969000Y-6873000D01*
X12969000Y-6843000D02*
X12939000Y-6873000D01*
X12939000Y-7097000D02*
X12969000Y-7127000D01*
X12969000Y-7097000D02*
X12939000Y-7127000D01*
X12939000Y-7351000D02*
X12969000Y-7381000D01*
X12969000Y-7351000D02*
X12939000Y-7381000D01*
X12939000Y-7605000D02*
X12969000Y-7635000D01*
X12969000Y-7605000D02*
X12939000Y-7635000D01*
X12939000Y-8875000D02*
X12969000Y-8905000D01*
X12969000Y-8875000D02*
X12939000Y-8905000D01*
X12939000Y-9129000D02*
X12969000Y-9159000D01*
X12969000Y-9129000D02*
X12939000Y-9159000D01*
X12939000Y-9383000D02*
X12969000Y-9413000D01*
X12969000Y-9383000D02*
X12939000Y-9413000D01*
X12939000Y-9637000D02*
X12969000Y-9667000D01*
X12969000Y-9637000D02*
X12939000Y-9667000D01*
X12939000Y-9891000D02*
X12969000Y-9921000D01*
X12969000Y-9891000D02*
X12939000Y-9921000D01*
X12939000Y-10145000D02*
X12969000Y-10175000D01*
X12969000Y-10145000D02*
X12939000Y-10175000D01*
X12939000Y-10399000D02*
X12969000Y-10429000D01*
X12969000Y-10399000D02*
X12939000Y-10429000D01*
X13155000Y-7625000D02*
X13185000Y-7655000D01*
X13185000Y-7625000D02*
X13155000Y-7655000D01*
X13155000Y-8895000D02*
X13185000Y-8925000D01*
X13185000Y-8895000D02*
X13155000Y-8925000D01*
X13193000Y-9383000D02*
X13223000Y-9413000D01*
X13223000Y-9383000D02*
X13193000Y-9413000D01*
X13193000Y-9891000D02*
X13223000Y-9921000D01*
X13223000Y-9891000D02*
X13193000Y-9921000D01*
X13193000Y-10145000D02*
X13223000Y-10175000D01*
X13223000Y-10145000D02*
X13193000Y-10175000D01*
X13193000Y-10399000D02*
X13223000Y-10429000D01*
X13223000Y-10399000D02*
X13193000Y-10429000D01*
X13395000Y-7485000D02*
X13425000Y-7515000D01*
X13425000Y-7485000D02*
X13395000Y-7515000D01*
X13495000Y-8895000D02*
X13525000Y-8925000D01*
X13525000Y-8895000D02*
X13495000Y-8925000D01*
X13955000Y-6335000D02*
X13985000Y-6365000D01*
X13985000Y-6335000D02*
X13955000Y-6365000D01*
X13955000Y-6589000D02*
X13985000Y-6619000D01*
X13985000Y-6589000D02*
X13955000Y-6619000D01*
X13955000Y-6843000D02*
X13985000Y-6873000D01*
X13985000Y-6843000D02*
X13955000Y-6873000D01*
X13955000Y-7097000D02*
X13985000Y-7127000D01*
X13985000Y-7097000D02*
X13955000Y-7127000D01*
X13955000Y-7351000D02*
X13985000Y-7381000D01*
X13985000Y-7351000D02*
X13955000Y-7381000D01*
X13955000Y-7605000D02*
X13985000Y-7635000D01*
X13985000Y-7605000D02*
X13955000Y-7635000D01*
X13955000Y-8113000D02*
X13985000Y-8143000D01*
X13985000Y-8113000D02*
X13955000Y-8143000D01*
X13955000Y-8367000D02*
X13985000Y-8397000D01*
X13985000Y-8367000D02*
X13955000Y-8397000D01*
X13955000Y-8875000D02*
X13985000Y-8905000D01*
X13985000Y-8875000D02*
X13955000Y-8905000D01*
X13955000Y-9129000D02*
X13985000Y-9159000D01*
X13985000Y-9129000D02*
X13955000Y-9159000D01*
X13955000Y-9383000D02*
X13985000Y-9413000D01*
X13985000Y-9383000D02*
X13955000Y-9413000D01*
X13955000Y-9637000D02*
X13985000Y-9667000D01*
X13985000Y-9637000D02*
X13955000Y-9667000D01*
X13955000Y-9891000D02*
X13985000Y-9921000D01*
X13985000Y-9891000D02*
X13955000Y-9921000D01*
X13955000Y-10145000D02*
X13985000Y-10175000D01*
X13985000Y-10145000D02*
X13955000Y-10175000D01*
X13955000Y-10399000D02*
X13985000Y-10429000D01*
X13985000Y-10399000D02*
X13955000Y-10429000D01*
X14209000Y-6335000D02*
X14239000Y-6365000D01*
X14239000Y-6335000D02*
X14209000Y-6365000D01*
X14209000Y-6589000D02*
X14239000Y-6619000D01*
X14239000Y-6589000D02*
X14209000Y-6619000D01*
X14209000Y-6843000D02*
X14239000Y-6873000D01*
X14239000Y-6843000D02*
X14209000Y-6873000D01*
X14209000Y-7097000D02*
X14239000Y-7127000D01*
X14239000Y-7097000D02*
X14209000Y-7127000D01*
X14209000Y-7351000D02*
X14239000Y-7381000D01*
X14239000Y-7351000D02*
X14209000Y-7381000D01*
X14209000Y-7605000D02*
X14239000Y-7635000D01*
X14239000Y-7605000D02*
X14209000Y-7635000D01*
X14209000Y-8113000D02*
X14239000Y-8143000D01*
X14239000Y-8113000D02*
X14209000Y-8143000D01*
X14209000Y-8367000D02*
X14239000Y-8397000D01*
X14239000Y-8367000D02*
X14209000Y-8397000D01*
X14209000Y-8875000D02*
X14239000Y-8905000D01*
X14239000Y-8875000D02*
X14209000Y-8905000D01*
X14209000Y-9129000D02*
X14239000Y-9159000D01*
X14239000Y-9129000D02*
X14209000Y-9159000D01*
X14209000Y-9383000D02*
X14239000Y-9413000D01*
X14239000Y-9383000D02*
X14209000Y-9413000D01*
X14209000Y-9637000D02*
X14239000Y-9667000D01*
X14239000Y-9637000D02*
X14209000Y-9667000D01*
X14209000Y-9891000D02*
X14239000Y-9921000D01*
X14239000Y-9891000D02*
X14209000Y-9921000D01*
X14209000Y-10145000D02*
X14239000Y-10175000D01*
X14239000Y-10145000D02*
X14209000Y-10175000D01*
X14209000Y-10399000D02*
X14239000Y-10429000D01*
X14239000Y-10399000D02*
X14209000Y-10429000D01*
X14463000Y-6335000D02*
X14493000Y-6365000D01*
X14493000Y-6335000D02*
X14463000Y-6365000D01*
X14463000Y-6589000D02*
X14493000Y-6619000D01*
X14493000Y-6589000D02*
X14463000Y-6619000D01*
X14463000Y-6843000D02*
X14493000Y-6873000D01*
X14493000Y-6843000D02*
X14463000Y-6873000D01*
X14463000Y-7097000D02*
X14493000Y-7127000D01*
X14493000Y-7097000D02*
X14463000Y-7127000D01*
X14463000Y-7351000D02*
X14493000Y-7381000D01*
X14493000Y-7351000D02*
X14463000Y-7381000D01*
X14463000Y-7605000D02*
X14493000Y-7635000D01*
X14493000Y-7605000D02*
X14463000Y-7635000D01*
X14463000Y-7859000D02*
X14493000Y-7889000D01*
X14493000Y-7859000D02*
X14463000Y-7889000D01*
X14463000Y-8113000D02*
X14493000Y-8143000D01*
X14493000Y-8113000D02*
X14463000Y-8143000D01*
X14463000Y-8367000D02*
X14493000Y-8397000D01*
X14493000Y-8367000D02*
X14463000Y-8397000D01*
X14463000Y-8621000D02*
X14493000Y-8651000D01*
X14493000Y-8621000D02*
X14463000Y-8651000D01*
X14463000Y-8875000D02*
X14493000Y-8905000D01*
X14493000Y-8875000D02*
X14463000Y-8905000D01*
X14463000Y-9129000D02*
X14493000Y-9159000D01*
X14493000Y-9129000D02*
X14463000Y-9159000D01*
X14463000Y-9383000D02*
X14493000Y-9413000D01*
X14493000Y-9383000D02*
X14463000Y-9413000D01*
X14463000Y-9637000D02*
X14493000Y-9667000D01*
X14493000Y-9637000D02*
X14463000Y-9667000D01*
X14463000Y-9891000D02*
X14493000Y-9921000D01*
X14493000Y-9891000D02*
X14463000Y-9921000D01*
X14463000Y-10145000D02*
X14493000Y-10175000D01*
X14493000Y-10145000D02*
X14463000Y-10175000D01*
X14463000Y-10399000D02*
X14493000Y-10429000D01*
X14493000Y-10399000D02*
X14463000Y-10429000D01*
X14717000Y-6335000D02*
X14747000Y-6365000D01*
X14747000Y-6335000D02*
X14717000Y-6365000D01*
X14717000Y-6589000D02*
X14747000Y-6619000D01*
X14747000Y-6589000D02*
X14717000Y-6619000D01*
X14717000Y-6843000D02*
X14747000Y-6873000D01*
X14747000Y-6843000D02*
X14717000Y-6873000D01*
X14717000Y-7097000D02*
X14747000Y-7127000D01*
X14747000Y-7097000D02*
X14717000Y-7127000D01*
X14717000Y-7351000D02*
X14747000Y-7381000D01*
X14747000Y-7351000D02*
X14717000Y-7381000D01*
X14717000Y-7605000D02*
X14747000Y-7635000D01*
X14747000Y-7605000D02*
X14717000Y-7635000D01*
X14717000Y-7859000D02*
X14747000Y-7889000D01*
X14747000Y-7859000D02*
X14717000Y-7889000D01*
X14717000Y-8113000D02*
X14747000Y-8143000D01*
X14747000Y-8113000D02*
X14717000Y-8143000D01*
X14717000Y-8367000D02*
X14747000Y-8397000D01*
X14747000Y-8367000D02*
X14717000Y-8397000D01*
X14717000Y-8621000D02*
X14747000Y-8651000D01*
X14747000Y-8621000D02*
X14717000Y-8651000D01*
X14717000Y-8875000D02*
X14747000Y-8905000D01*
X14747000Y-8875000D02*
X14717000Y-8905000D01*
X14717000Y-9129000D02*
X14747000Y-9159000D01*
X14747000Y-9129000D02*
X14717000Y-9159000D01*
X14717000Y-9383000D02*
X14747000Y-9413000D01*
X14747000Y-9383000D02*
X14717000Y-9413000D01*
X14717000Y-9637000D02*
X14747000Y-9667000D01*
X14747000Y-9637000D02*
X14717000Y-9667000D01*
X14717000Y-9891000D02*
X14747000Y-9921000D01*
X14747000Y-9891000D02*
X14717000Y-9921000D01*
X14717000Y-10145000D02*
X14747000Y-10175000D01*
X14747000Y-10145000D02*
X14717000Y-10175000D01*
X14717000Y-10399000D02*
X14747000Y-10429000D01*
X14747000Y-10399000D02*
X14717000Y-10429000D01*
X14971000Y-6589000D02*
X15001000Y-6619000D01*
X15001000Y-6589000D02*
X14971000Y-6619000D01*
X14971000Y-6843000D02*
X15001000Y-6873000D01*
X15001000Y-6843000D02*
X14971000Y-6873000D01*
X14971000Y-7097000D02*
X15001000Y-7127000D01*
X15001000Y-7097000D02*
X14971000Y-7127000D01*
X14971000Y-7351000D02*
X15001000Y-7381000D01*
X15001000Y-7351000D02*
X14971000Y-7381000D01*
X14971000Y-7605000D02*
X15001000Y-7635000D01*
X15001000Y-7605000D02*
X14971000Y-7635000D01*
X14971000Y-8113000D02*
X15001000Y-8143000D01*
X15001000Y-8113000D02*
X14971000Y-8143000D01*
X14971000Y-8367000D02*
X15001000Y-8397000D01*
X15001000Y-8367000D02*
X14971000Y-8397000D01*
X14971000Y-8875000D02*
X15001000Y-8905000D01*
X15001000Y-8875000D02*
X14971000Y-8905000D01*
X14971000Y-9129000D02*
X15001000Y-9159000D01*
X15001000Y-9129000D02*
X14971000Y-9159000D01*
X14971000Y-9383000D02*
X15001000Y-9413000D01*
X15001000Y-9383000D02*
X14971000Y-9413000D01*
X14971000Y-9637000D02*
X15001000Y-9667000D01*
X15001000Y-9637000D02*
X14971000Y-9667000D01*
X14971000Y-9891000D02*
X15001000Y-9921000D01*
X15001000Y-9891000D02*
X14971000Y-9921000D01*
X13785000Y-8240000D02*
G75*
G02*
X13735000Y-8240000I-25000J0D01*
G01*
X13735000Y-8240000D02*
G75*
G02*
X13785000Y-8240000I25000J0D01*
G01*
X13785000Y-8340000D02*
G75*
G02*
X13735000Y-8340000I-25000J0D01*
G01*
X13735000Y-8340000D02*
G75*
G02*
X13785000Y-8340000I25000J0D01*
G01*
X13785000Y-8440000D02*
G75*
G02*
X13735000Y-8440000I-25000J0D01*
G01*
X13735000Y-8440000D02*
G75*
G02*
X13785000Y-8440000I25000J0D01*
G01*
D12*
X11710000Y-6780000D02*
X11710000Y-6940000D01*
X11630000Y-6860000D02*
X11790000Y-6860000D01*
X11710000Y-7580000D02*
X11710000Y-7740000D01*
X11630000Y-7660000D02*
X11790000Y-7660000D01*
X11710000Y-8820000D02*
X11710000Y-8980000D01*
X11630000Y-8900000D02*
X11790000Y-8900000D01*
X11710000Y-9620000D02*
X11710000Y-9780000D01*
X11630000Y-9700000D02*
X11790000Y-9700000D01*
X12510000Y-6780000D02*
X12510000Y-6940000D01*
X12430000Y-6860000D02*
X12590000Y-6860000D01*
X12510000Y-7580000D02*
X12510000Y-7740000D01*
X12430000Y-7660000D02*
X12590000Y-7660000D01*
X12510000Y-8820000D02*
X12510000Y-8980000D01*
X12430000Y-8900000D02*
X12590000Y-8900000D01*
X12510000Y-9620000D02*
X12510000Y-9780000D01*
X12430000Y-9700000D02*
X12590000Y-9700000D01*
X14150000Y-7800000D02*
X14150000Y-7960000D01*
X14070000Y-7880000D02*
X14230000Y-7880000D01*
X14150000Y-8600000D02*
X14150000Y-8760000D01*
X14070000Y-8680000D02*
X14230000Y-8680000D01*
X14950000Y-7800000D02*
X14950000Y-7960000D01*
X14870000Y-7880000D02*
X15030000Y-7880000D01*
X14950000Y-8600000D02*
X14950000Y-8760000D01*
X14870000Y-8680000D02*
X15030000Y-8680000D01*
D11*
X11655777Y-10886484D02*
X11655777Y-10686484D01*
X11655777Y-10686484D02*
X11703396Y-10686484D01*
X11703396Y-10686484D02*
X11731967Y-10696008D01*
X11731967Y-10696008D02*
X11751015Y-10715055D01*
X11751015Y-10715055D02*
X11760539Y-10734103D01*
X11760539Y-10734103D02*
X11770062Y-10772198D01*
X11770062Y-10772198D02*
X11770062Y-10800770D01*
X11770062Y-10800770D02*
X11760539Y-10838865D01*
X11760539Y-10838865D02*
X11751015Y-10857912D01*
X11751015Y-10857912D02*
X11731967Y-10876960D01*
X11731967Y-10876960D02*
X11703396Y-10886484D01*
X11703396Y-10886484D02*
X11655777Y-10886484D01*
X11855777Y-10886484D02*
X11855777Y-10753150D01*
X11855777Y-10791246D02*
X11865301Y-10772198D01*
X11865301Y-10772198D02*
X11874824Y-10762674D01*
X11874824Y-10762674D02*
X11893872Y-10753150D01*
X11893872Y-10753150D02*
X11912920Y-10753150D01*
X11979586Y-10886484D02*
X11979586Y-10753150D01*
X11979586Y-10686484D02*
X11970062Y-10696008D01*
X11970062Y-10696008D02*
X11979586Y-10705531D01*
X11979586Y-10705531D02*
X11989110Y-10696008D01*
X11989110Y-10696008D02*
X11979586Y-10686484D01*
X11979586Y-10686484D02*
X11979586Y-10705531D01*
X12103396Y-10886484D02*
X12084348Y-10876960D01*
X12084348Y-10876960D02*
X12074824Y-10857912D01*
X12074824Y-10857912D02*
X12074824Y-10686484D01*
X12208158Y-10886484D02*
X12189110Y-10876960D01*
X12189110Y-10876960D02*
X12179586Y-10857912D01*
X12179586Y-10857912D02*
X12179586Y-10686484D01*
X12436729Y-10886484D02*
X12436729Y-10686484D01*
X12436729Y-10686484D02*
X12503396Y-10829341D01*
X12503396Y-10829341D02*
X12570062Y-10686484D01*
X12570062Y-10686484D02*
X12570062Y-10886484D01*
X12751015Y-10886484D02*
X12751015Y-10781722D01*
X12751015Y-10781722D02*
X12741491Y-10762674D01*
X12741491Y-10762674D02*
X12722443Y-10753150D01*
X12722443Y-10753150D02*
X12684348Y-10753150D01*
X12684348Y-10753150D02*
X12665301Y-10762674D01*
X12751015Y-10876960D02*
X12731967Y-10886484D01*
X12731967Y-10886484D02*
X12684348Y-10886484D01*
X12684348Y-10886484D02*
X12665301Y-10876960D01*
X12665301Y-10876960D02*
X12655777Y-10857912D01*
X12655777Y-10857912D02*
X12655777Y-10838865D01*
X12655777Y-10838865D02*
X12665301Y-10819817D01*
X12665301Y-10819817D02*
X12684348Y-10810293D01*
X12684348Y-10810293D02*
X12731967Y-10810293D01*
X12731967Y-10810293D02*
X12751015Y-10800770D01*
X12846253Y-10753150D02*
X12846253Y-10953150D01*
X12846253Y-10762674D02*
X12865301Y-10753150D01*
X12865301Y-10753150D02*
X12903396Y-10753150D01*
X12903396Y-10753150D02*
X12922443Y-10762674D01*
X12922443Y-10762674D02*
X12931967Y-10772198D01*
X12931967Y-10772198D02*
X12941491Y-10791246D01*
X12941491Y-10791246D02*
X12941491Y-10848389D01*
X12941491Y-10848389D02*
X12931967Y-10867436D01*
X12931967Y-10867436D02*
X12922443Y-10876960D01*
X12922443Y-10876960D02*
X12903396Y-10886484D01*
X12903396Y-10886484D02*
X12865301Y-10886484D01*
X12865301Y-10886484D02*
X12846253Y-10876960D01*
X13027205Y-10867436D02*
X13036729Y-10876960D01*
X13036729Y-10876960D02*
X13027205Y-10886484D01*
X13027205Y-10886484D02*
X13017682Y-10876960D01*
X13017682Y-10876960D02*
X13027205Y-10867436D01*
X13027205Y-10867436D02*
X13027205Y-10886484D01*
X13027205Y-10762674D02*
X13036729Y-10772198D01*
X13036729Y-10772198D02*
X13027205Y-10781722D01*
X13027205Y-10781722D02*
X13017682Y-10772198D01*
X13017682Y-10772198D02*
X13027205Y-10762674D01*
X13027205Y-10762674D02*
X13027205Y-10781722D01*
D10*
X11365000Y-11200000D02*
X11395000Y-11230000D01*
X11395000Y-11200000D02*
X11365000Y-11230000D01*
D11*
X11693872Y-11106484D02*
X11712920Y-11106484D01*
X11712920Y-11106484D02*
X11731967Y-11116008D01*
X11731967Y-11116008D02*
X11741491Y-11125531D01*
X11741491Y-11125531D02*
X11751015Y-11144579D01*
X11751015Y-11144579D02*
X11760539Y-11182674D01*
X11760539Y-11182674D02*
X11760539Y-11230293D01*
X11760539Y-11230293D02*
X11751015Y-11268388D01*
X11751015Y-11268388D02*
X11741491Y-11287436D01*
X11741491Y-11287436D02*
X11731967Y-11296960D01*
X11731967Y-11296960D02*
X11712920Y-11306484D01*
X11712920Y-11306484D02*
X11693872Y-11306484D01*
X11693872Y-11306484D02*
X11674824Y-11296960D01*
X11674824Y-11296960D02*
X11665301Y-11287436D01*
X11665301Y-11287436D02*
X11655777Y-11268388D01*
X11655777Y-11268388D02*
X11646253Y-11230293D01*
X11646253Y-11230293D02*
X11646253Y-11182674D01*
X11646253Y-11182674D02*
X11655777Y-11144579D01*
X11655777Y-11144579D02*
X11665301Y-11125531D01*
X11665301Y-11125531D02*
X11674824Y-11116008D01*
X11674824Y-11116008D02*
X11693872Y-11106484D01*
X11846253Y-11287436D02*
X11855777Y-11296960D01*
X11855777Y-11296960D02*
X11846253Y-11306484D01*
X11846253Y-11306484D02*
X11836729Y-11296960D01*
X11836729Y-11296960D02*
X11846253Y-11287436D01*
X11846253Y-11287436D02*
X11846253Y-11306484D01*
X11922443Y-11106484D02*
X12046253Y-11106484D01*
X12046253Y-11106484D02*
X11979586Y-11182674D01*
X11979586Y-11182674D02*
X12008158Y-11182674D01*
X12008158Y-11182674D02*
X12027205Y-11192198D01*
X12027205Y-11192198D02*
X12036729Y-11201722D01*
X12036729Y-11201722D02*
X12046253Y-11220769D01*
X12046253Y-11220769D02*
X12046253Y-11268388D01*
X12046253Y-11268388D02*
X12036729Y-11287436D01*
X12036729Y-11287436D02*
X12027205Y-11296960D01*
X12027205Y-11296960D02*
X12008158Y-11306484D01*
X12008158Y-11306484D02*
X11951015Y-11306484D01*
X11951015Y-11306484D02*
X11931967Y-11296960D01*
X11931967Y-11296960D02*
X11922443Y-11287436D01*
X12170062Y-11106484D02*
X12189110Y-11106484D01*
X12189110Y-11106484D02*
X12208158Y-11116008D01*
X12208158Y-11116008D02*
X12217682Y-11125531D01*
X12217682Y-11125531D02*
X12227205Y-11144579D01*
X12227205Y-11144579D02*
X12236729Y-11182674D01*
X12236729Y-11182674D02*
X12236729Y-11230293D01*
X12236729Y-11230293D02*
X12227205Y-11268388D01*
X12227205Y-11268388D02*
X12217682Y-11287436D01*
X12217682Y-11287436D02*
X12208158Y-11296960D01*
X12208158Y-11296960D02*
X12189110Y-11306484D01*
X12189110Y-11306484D02*
X12170062Y-11306484D01*
X12170062Y-11306484D02*
X12151015Y-11296960D01*
X12151015Y-11296960D02*
X12141491Y-11287436D01*
X12141491Y-11287436D02*
X12131967Y-11268388D01*
X12131967Y-11268388D02*
X12122443Y-11230293D01*
X12122443Y-11230293D02*
X12122443Y-11182674D01*
X12122443Y-11182674D02*
X12131967Y-11144579D01*
X12131967Y-11144579D02*
X12141491Y-11125531D01*
X12141491Y-11125531D02*
X12151015Y-11116008D01*
X12151015Y-11116008D02*
X12170062Y-11106484D01*
X12360539Y-11106484D02*
X12379586Y-11106484D01*
X12379586Y-11106484D02*
X12398634Y-11116008D01*
X12398634Y-11116008D02*
X12408158Y-11125531D01*
X12408158Y-11125531D02*
X12417682Y-11144579D01*
X12417682Y-11144579D02*
X12427205Y-11182674D01*
X12427205Y-11182674D02*
X12427205Y-11230293D01*
X12427205Y-11230293D02*
X12417682Y-11268388D01*
X12417682Y-11268388D02*
X12408158Y-11287436D01*
X12408158Y-11287436D02*
X12398634Y-11296960D01*
X12398634Y-11296960D02*
X12379586Y-11306484D01*
X12379586Y-11306484D02*
X12360539Y-11306484D01*
X12360539Y-11306484D02*
X12341491Y-11296960D01*
X12341491Y-11296960D02*
X12331967Y-11287436D01*
X12331967Y-11287436D02*
X12322443Y-11268388D01*
X12322443Y-11268388D02*
X12312920Y-11230293D01*
X12312920Y-11230293D02*
X12312920Y-11182674D01*
X12312920Y-11182674D02*
X12322443Y-11144579D01*
X12322443Y-11144579D02*
X12331967Y-11125531D01*
X12331967Y-11125531D02*
X12341491Y-11116008D01*
X12341491Y-11116008D02*
X12360539Y-11106484D01*
X12512920Y-11306484D02*
X12512920Y-11173150D01*
X12512920Y-11192198D02*
X12522443Y-11182674D01*
X12522443Y-11182674D02*
X12541491Y-11173150D01*
X12541491Y-11173150D02*
X12570063Y-11173150D01*
X12570063Y-11173150D02*
X12589110Y-11182674D01*
X12589110Y-11182674D02*
X12598634Y-11201722D01*
X12598634Y-11201722D02*
X12598634Y-11306484D01*
X12598634Y-11201722D02*
X12608158Y-11182674D01*
X12608158Y-11182674D02*
X12627205Y-11173150D01*
X12627205Y-11173150D02*
X12655777Y-11173150D01*
X12655777Y-11173150D02*
X12674824Y-11182674D01*
X12674824Y-11182674D02*
X12684348Y-11201722D01*
X12684348Y-11201722D02*
X12684348Y-11306484D01*
X12779586Y-11306484D02*
X12779586Y-11173150D01*
X12779586Y-11192198D02*
X12789110Y-11182674D01*
X12789110Y-11182674D02*
X12808158Y-11173150D01*
X12808158Y-11173150D02*
X12836729Y-11173150D01*
X12836729Y-11173150D02*
X12855777Y-11182674D01*
X12855777Y-11182674D02*
X12865301Y-11201722D01*
X12865301Y-11201722D02*
X12865301Y-11306484D01*
X12865301Y-11201722D02*
X12874824Y-11182674D01*
X12874824Y-11182674D02*
X12893872Y-11173150D01*
X12893872Y-11173150D02*
X12922443Y-11173150D01*
X12922443Y-11173150D02*
X12941491Y-11182674D01*
X12941491Y-11182674D02*
X12951015Y-11201722D01*
X12951015Y-11201722D02*
X12951015Y-11306484D01*
X13341491Y-11096960D02*
X13170063Y-11354103D01*
X13598634Y-11106484D02*
X13617682Y-11106484D01*
X13617682Y-11106484D02*
X13636729Y-11116008D01*
X13636729Y-11116008D02*
X13646253Y-11125531D01*
X13646253Y-11125531D02*
X13655777Y-11144579D01*
X13655777Y-11144579D02*
X13665301Y-11182674D01*
X13665301Y-11182674D02*
X13665301Y-11230293D01*
X13665301Y-11230293D02*
X13655777Y-11268388D01*
X13655777Y-11268388D02*
X13646253Y-11287436D01*
X13646253Y-11287436D02*
X13636729Y-11296960D01*
X13636729Y-11296960D02*
X13617682Y-11306484D01*
X13617682Y-11306484D02*
X13598634Y-11306484D01*
X13598634Y-11306484D02*
X13579586Y-11296960D01*
X13579586Y-11296960D02*
X13570063Y-11287436D01*
X13570063Y-11287436D02*
X13560539Y-11268388D01*
X13560539Y-11268388D02*
X13551015Y-11230293D01*
X13551015Y-11230293D02*
X13551015Y-11182674D01*
X13551015Y-11182674D02*
X13560539Y-11144579D01*
X13560539Y-11144579D02*
X13570063Y-11125531D01*
X13570063Y-11125531D02*
X13579586Y-11116008D01*
X13579586Y-11116008D02*
X13598634Y-11106484D01*
X13751015Y-11287436D02*
X13760539Y-11296960D01*
X13760539Y-11296960D02*
X13751015Y-11306484D01*
X13751015Y-11306484D02*
X13741491Y-11296960D01*
X13741491Y-11296960D02*
X13751015Y-11287436D01*
X13751015Y-11287436D02*
X13751015Y-11306484D01*
X13884348Y-11106484D02*
X13903396Y-11106484D01*
X13903396Y-11106484D02*
X13922444Y-11116008D01*
X13922444Y-11116008D02*
X13931967Y-11125531D01*
X13931967Y-11125531D02*
X13941491Y-11144579D01*
X13941491Y-11144579D02*
X13951015Y-11182674D01*
X13951015Y-11182674D02*
X13951015Y-11230293D01*
X13951015Y-11230293D02*
X13941491Y-11268388D01*
X13941491Y-11268388D02*
X13931967Y-11287436D01*
X13931967Y-11287436D02*
X13922444Y-11296960D01*
X13922444Y-11296960D02*
X13903396Y-11306484D01*
X13903396Y-11306484D02*
X13884348Y-11306484D01*
X13884348Y-11306484D02*
X13865301Y-11296960D01*
X13865301Y-11296960D02*
X13855777Y-11287436D01*
X13855777Y-11287436D02*
X13846253Y-11268388D01*
X13846253Y-11268388D02*
X13836729Y-11230293D01*
X13836729Y-11230293D02*
X13836729Y-11182674D01*
X13836729Y-11182674D02*
X13846253Y-11144579D01*
X13846253Y-11144579D02*
X13855777Y-11125531D01*
X13855777Y-11125531D02*
X13865301Y-11116008D01*
X13865301Y-11116008D02*
X13884348Y-11106484D01*
X14141491Y-11306484D02*
X14027206Y-11306484D01*
X14084348Y-11306484D02*
X14084348Y-11106484D01*
X14084348Y-11106484D02*
X14065301Y-11135055D01*
X14065301Y-11135055D02*
X14046253Y-11154103D01*
X14046253Y-11154103D02*
X14027206Y-11163627D01*
X14331967Y-11306484D02*
X14217682Y-11306484D01*
X14274825Y-11306484D02*
X14274825Y-11106484D01*
X14274825Y-11106484D02*
X14255777Y-11135055D01*
X14255777Y-11135055D02*
X14236729Y-11154103D01*
X14236729Y-11154103D02*
X14217682Y-11163627D01*
X14446253Y-11192198D02*
X14427206Y-11182674D01*
X14427206Y-11182674D02*
X14417682Y-11173150D01*
X14417682Y-11173150D02*
X14408158Y-11154103D01*
X14408158Y-11154103D02*
X14408158Y-11144579D01*
X14408158Y-11144579D02*
X14417682Y-11125531D01*
X14417682Y-11125531D02*
X14427206Y-11116008D01*
X14427206Y-11116008D02*
X14446253Y-11106484D01*
X14446253Y-11106484D02*
X14484348Y-11106484D01*
X14484348Y-11106484D02*
X14503396Y-11116008D01*
X14503396Y-11116008D02*
X14512920Y-11125531D01*
X14512920Y-11125531D02*
X14522444Y-11144579D01*
X14522444Y-11144579D02*
X14522444Y-11154103D01*
X14522444Y-11154103D02*
X14512920Y-11173150D01*
X14512920Y-11173150D02*
X14503396Y-11182674D01*
X14503396Y-11182674D02*
X14484348Y-11192198D01*
X14484348Y-11192198D02*
X14446253Y-11192198D01*
X14446253Y-11192198D02*
X14427206Y-11201722D01*
X14427206Y-11201722D02*
X14417682Y-11211246D01*
X14417682Y-11211246D02*
X14408158Y-11230293D01*
X14408158Y-11230293D02*
X14408158Y-11268388D01*
X14408158Y-11268388D02*
X14417682Y-11287436D01*
X14417682Y-11287436D02*
X14427206Y-11296960D01*
X14427206Y-11296960D02*
X14446253Y-11306484D01*
X14446253Y-11306484D02*
X14484348Y-11306484D01*
X14484348Y-11306484D02*
X14503396Y-11296960D01*
X14503396Y-11296960D02*
X14512920Y-11287436D01*
X14512920Y-11287436D02*
X14522444Y-11268388D01*
X14522444Y-11268388D02*
X14522444Y-11230293D01*
X14522444Y-11230293D02*
X14512920Y-11211246D01*
X14512920Y-11211246D02*
X14503396Y-11201722D01*
X14503396Y-11201722D02*
X14484348Y-11192198D01*
X14598634Y-11106484D02*
X14598634Y-11144579D01*
X14674825Y-11106484D02*
X14674825Y-11144579D01*
X14970063Y-11382674D02*
X14960539Y-11373150D01*
X14960539Y-11373150D02*
X14941491Y-11344579D01*
X14941491Y-11344579D02*
X14931968Y-11325531D01*
X14931968Y-11325531D02*
X14922444Y-11296960D01*
X14922444Y-11296960D02*
X14912920Y-11249341D01*
X14912920Y-11249341D02*
X14912920Y-11211246D01*
X14912920Y-11211246D02*
X14922444Y-11163627D01*
X14922444Y-11163627D02*
X14931968Y-11135055D01*
X14931968Y-11135055D02*
X14941491Y-11116008D01*
X14941491Y-11116008D02*
X14960539Y-11087436D01*
X14960539Y-11087436D02*
X14970063Y-11077912D01*
X15151015Y-11306484D02*
X15036729Y-11306484D01*
X15093872Y-11306484D02*
X15093872Y-11106484D01*
X15093872Y-11106484D02*
X15074825Y-11135055D01*
X15074825Y-11135055D02*
X15055777Y-11154103D01*
X15055777Y-11154103D02*
X15036729Y-11163627D01*
X15322444Y-11106484D02*
X15284348Y-11106484D01*
X15284348Y-11106484D02*
X15265301Y-11116008D01*
X15265301Y-11116008D02*
X15255777Y-11125531D01*
X15255777Y-11125531D02*
X15236729Y-11154103D01*
X15236729Y-11154103D02*
X15227206Y-11192198D01*
X15227206Y-11192198D02*
X15227206Y-11268388D01*
X15227206Y-11268388D02*
X15236729Y-11287436D01*
X15236729Y-11287436D02*
X15246253Y-11296960D01*
X15246253Y-11296960D02*
X15265301Y-11306484D01*
X15265301Y-11306484D02*
X15303396Y-11306484D01*
X15303396Y-11306484D02*
X15322444Y-11296960D01*
X15322444Y-11296960D02*
X15331968Y-11287436D01*
X15331968Y-11287436D02*
X15341491Y-11268388D01*
X15341491Y-11268388D02*
X15341491Y-11220769D01*
X15341491Y-11220769D02*
X15331968Y-11201722D01*
X15331968Y-11201722D02*
X15322444Y-11192198D01*
X15322444Y-11192198D02*
X15303396Y-11182674D01*
X15303396Y-11182674D02*
X15265301Y-11182674D01*
X15265301Y-11182674D02*
X15246253Y-11192198D01*
X15246253Y-11192198D02*
X15236729Y-11201722D01*
X15236729Y-11201722D02*
X15227206Y-11220769D01*
X15465301Y-11106484D02*
X15484349Y-11106484D01*
X15484349Y-11106484D02*
X15503396Y-11116008D01*
X15503396Y-11116008D02*
X15512920Y-11125531D01*
X15512920Y-11125531D02*
X15522444Y-11144579D01*
X15522444Y-11144579D02*
X15531968Y-11182674D01*
X15531968Y-11182674D02*
X15531968Y-11230293D01*
X15531968Y-11230293D02*
X15522444Y-11268388D01*
X15522444Y-11268388D02*
X15512920Y-11287436D01*
X15512920Y-11287436D02*
X15503396Y-11296960D01*
X15503396Y-11296960D02*
X15484349Y-11306484D01*
X15484349Y-11306484D02*
X15465301Y-11306484D01*
X15465301Y-11306484D02*
X15446253Y-11296960D01*
X15446253Y-11296960D02*
X15436729Y-11287436D01*
X15436729Y-11287436D02*
X15427206Y-11268388D01*
X15427206Y-11268388D02*
X15417682Y-11230293D01*
X15417682Y-11230293D02*
X15417682Y-11182674D01*
X15417682Y-11182674D02*
X15427206Y-11144579D01*
X15427206Y-11144579D02*
X15436729Y-11125531D01*
X15436729Y-11125531D02*
X15446253Y-11116008D01*
X15446253Y-11116008D02*
X15465301Y-11106484D01*
X15770063Y-11306484D02*
X15770063Y-11106484D01*
X15855777Y-11306484D02*
X15855777Y-11201722D01*
X15855777Y-11201722D02*
X15846253Y-11182674D01*
X15846253Y-11182674D02*
X15827206Y-11173150D01*
X15827206Y-11173150D02*
X15798634Y-11173150D01*
X15798634Y-11173150D02*
X15779587Y-11182674D01*
X15779587Y-11182674D02*
X15770063Y-11192198D01*
X15979587Y-11306484D02*
X15960539Y-11296960D01*
X15960539Y-11296960D02*
X15951015Y-11287436D01*
X15951015Y-11287436D02*
X15941491Y-11268388D01*
X15941491Y-11268388D02*
X15941491Y-11211246D01*
X15941491Y-11211246D02*
X15951015Y-11192198D01*
X15951015Y-11192198D02*
X15960539Y-11182674D01*
X15960539Y-11182674D02*
X15979587Y-11173150D01*
X15979587Y-11173150D02*
X16008158Y-11173150D01*
X16008158Y-11173150D02*
X16027206Y-11182674D01*
X16027206Y-11182674D02*
X16036730Y-11192198D01*
X16036730Y-11192198D02*
X16046253Y-11211246D01*
X16046253Y-11211246D02*
X16046253Y-11268388D01*
X16046253Y-11268388D02*
X16036730Y-11287436D01*
X16036730Y-11287436D02*
X16027206Y-11296960D01*
X16027206Y-11296960D02*
X16008158Y-11306484D01*
X16008158Y-11306484D02*
X15979587Y-11306484D01*
X16160539Y-11306484D02*
X16141491Y-11296960D01*
X16141491Y-11296960D02*
X16131968Y-11277912D01*
X16131968Y-11277912D02*
X16131968Y-11106484D01*
X16312920Y-11296960D02*
X16293872Y-11306484D01*
X16293872Y-11306484D02*
X16255777Y-11306484D01*
X16255777Y-11306484D02*
X16236730Y-11296960D01*
X16236730Y-11296960D02*
X16227206Y-11277912D01*
X16227206Y-11277912D02*
X16227206Y-11201722D01*
X16227206Y-11201722D02*
X16236730Y-11182674D01*
X16236730Y-11182674D02*
X16255777Y-11173150D01*
X16255777Y-11173150D02*
X16293872Y-11173150D01*
X16293872Y-11173150D02*
X16312920Y-11182674D01*
X16312920Y-11182674D02*
X16322444Y-11201722D01*
X16322444Y-11201722D02*
X16322444Y-11220769D01*
X16322444Y-11220769D02*
X16227206Y-11239817D01*
X16398634Y-11296960D02*
X16417682Y-11306484D01*
X16417682Y-11306484D02*
X16455777Y-11306484D01*
X16455777Y-11306484D02*
X16474825Y-11296960D01*
X16474825Y-11296960D02*
X16484349Y-11277912D01*
X16484349Y-11277912D02*
X16484349Y-11268388D01*
X16484349Y-11268388D02*
X16474825Y-11249341D01*
X16474825Y-11249341D02*
X16455777Y-11239817D01*
X16455777Y-11239817D02*
X16427206Y-11239817D01*
X16427206Y-11239817D02*
X16408158Y-11230293D01*
X16408158Y-11230293D02*
X16398634Y-11211246D01*
X16398634Y-11211246D02*
X16398634Y-11201722D01*
X16398634Y-11201722D02*
X16408158Y-11182674D01*
X16408158Y-11182674D02*
X16427206Y-11173150D01*
X16427206Y-11173150D02*
X16455777Y-11173150D01*
X16455777Y-11173150D02*
X16474825Y-11182674D01*
X16551015Y-11382674D02*
X16560539Y-11373150D01*
X16560539Y-11373150D02*
X16579587Y-11344579D01*
X16579587Y-11344579D02*
X16589111Y-11325531D01*
X16589111Y-11325531D02*
X16598634Y-11296960D01*
X16598634Y-11296960D02*
X16608158Y-11249341D01*
X16608158Y-11249341D02*
X16608158Y-11211246D01*
X16608158Y-11211246D02*
X16598634Y-11163627D01*
X16598634Y-11163627D02*
X16589111Y-11135055D01*
X16589111Y-11135055D02*
X16579587Y-11116008D01*
X16579587Y-11116008D02*
X16560539Y-11087436D01*
X16560539Y-11087436D02*
X16551015Y-11077912D01*
D10*
X11395000Y-11479000D02*
G75*
G02*
X11345000Y-11479000I-25000J0D01*
G01*
X11345000Y-11479000D02*
G75*
G02*
X11395000Y-11479000I25000J0D01*
G01*
D11*
X11693872Y-11370484D02*
X11712920Y-11370484D01*
X11712920Y-11370484D02*
X11731967Y-11380008D01*
X11731967Y-11380008D02*
X11741491Y-11389531D01*
X11741491Y-11389531D02*
X11751015Y-11408579D01*
X11751015Y-11408579D02*
X11760539Y-11446674D01*
X11760539Y-11446674D02*
X11760539Y-11494293D01*
X11760539Y-11494293D02*
X11751015Y-11532388D01*
X11751015Y-11532388D02*
X11741491Y-11551436D01*
X11741491Y-11551436D02*
X11731967Y-11560960D01*
X11731967Y-11560960D02*
X11712920Y-11570484D01*
X11712920Y-11570484D02*
X11693872Y-11570484D01*
X11693872Y-11570484D02*
X11674824Y-11560960D01*
X11674824Y-11560960D02*
X11665301Y-11551436D01*
X11665301Y-11551436D02*
X11655777Y-11532388D01*
X11655777Y-11532388D02*
X11646253Y-11494293D01*
X11646253Y-11494293D02*
X11646253Y-11446674D01*
X11646253Y-11446674D02*
X11655777Y-11408579D01*
X11655777Y-11408579D02*
X11665301Y-11389531D01*
X11665301Y-11389531D02*
X11674824Y-11380008D01*
X11674824Y-11380008D02*
X11693872Y-11370484D01*
X11846253Y-11551436D02*
X11855777Y-11560960D01*
X11855777Y-11560960D02*
X11846253Y-11570484D01*
X11846253Y-11570484D02*
X11836729Y-11560960D01*
X11836729Y-11560960D02*
X11846253Y-11551436D01*
X11846253Y-11551436D02*
X11846253Y-11570484D01*
X12036729Y-11370484D02*
X11941491Y-11370484D01*
X11941491Y-11370484D02*
X11931967Y-11465722D01*
X11931967Y-11465722D02*
X11941491Y-11456198D01*
X11941491Y-11456198D02*
X11960539Y-11446674D01*
X11960539Y-11446674D02*
X12008158Y-11446674D01*
X12008158Y-11446674D02*
X12027205Y-11456198D01*
X12027205Y-11456198D02*
X12036729Y-11465722D01*
X12036729Y-11465722D02*
X12046253Y-11484769D01*
X12046253Y-11484769D02*
X12046253Y-11532388D01*
X12046253Y-11532388D02*
X12036729Y-11551436D01*
X12036729Y-11551436D02*
X12027205Y-11560960D01*
X12027205Y-11560960D02*
X12008158Y-11570484D01*
X12008158Y-11570484D02*
X11960539Y-11570484D01*
X11960539Y-11570484D02*
X11941491Y-11560960D01*
X11941491Y-11560960D02*
X11931967Y-11551436D01*
X12170062Y-11370484D02*
X12189110Y-11370484D01*
X12189110Y-11370484D02*
X12208158Y-11380008D01*
X12208158Y-11380008D02*
X12217682Y-11389531D01*
X12217682Y-11389531D02*
X12227205Y-11408579D01*
X12227205Y-11408579D02*
X12236729Y-11446674D01*
X12236729Y-11446674D02*
X12236729Y-11494293D01*
X12236729Y-11494293D02*
X12227205Y-11532388D01*
X12227205Y-11532388D02*
X12217682Y-11551436D01*
X12217682Y-11551436D02*
X12208158Y-11560960D01*
X12208158Y-11560960D02*
X12189110Y-11570484D01*
X12189110Y-11570484D02*
X12170062Y-11570484D01*
X12170062Y-11570484D02*
X12151015Y-11560960D01*
X12151015Y-11560960D02*
X12141491Y-11551436D01*
X12141491Y-11551436D02*
X12131967Y-11532388D01*
X12131967Y-11532388D02*
X12122443Y-11494293D01*
X12122443Y-11494293D02*
X12122443Y-11446674D01*
X12122443Y-11446674D02*
X12131967Y-11408579D01*
X12131967Y-11408579D02*
X12141491Y-11389531D01*
X12141491Y-11389531D02*
X12151015Y-11380008D01*
X12151015Y-11380008D02*
X12170062Y-11370484D01*
X12360539Y-11370484D02*
X12379586Y-11370484D01*
X12379586Y-11370484D02*
X12398634Y-11380008D01*
X12398634Y-11380008D02*
X12408158Y-11389531D01*
X12408158Y-11389531D02*
X12417682Y-11408579D01*
X12417682Y-11408579D02*
X12427205Y-11446674D01*
X12427205Y-11446674D02*
X12427205Y-11494293D01*
X12427205Y-11494293D02*
X12417682Y-11532388D01*
X12417682Y-11532388D02*
X12408158Y-11551436D01*
X12408158Y-11551436D02*
X12398634Y-11560960D01*
X12398634Y-11560960D02*
X12379586Y-11570484D01*
X12379586Y-11570484D02*
X12360539Y-11570484D01*
X12360539Y-11570484D02*
X12341491Y-11560960D01*
X12341491Y-11560960D02*
X12331967Y-11551436D01*
X12331967Y-11551436D02*
X12322443Y-11532388D01*
X12322443Y-11532388D02*
X12312920Y-11494293D01*
X12312920Y-11494293D02*
X12312920Y-11446674D01*
X12312920Y-11446674D02*
X12322443Y-11408579D01*
X12322443Y-11408579D02*
X12331967Y-11389531D01*
X12331967Y-11389531D02*
X12341491Y-11380008D01*
X12341491Y-11380008D02*
X12360539Y-11370484D01*
X12512920Y-11570484D02*
X12512920Y-11437150D01*
X12512920Y-11456198D02*
X12522443Y-11446674D01*
X12522443Y-11446674D02*
X12541491Y-11437150D01*
X12541491Y-11437150D02*
X12570063Y-11437150D01*
X12570063Y-11437150D02*
X12589110Y-11446674D01*
X12589110Y-11446674D02*
X12598634Y-11465722D01*
X12598634Y-11465722D02*
X12598634Y-11570484D01*
X12598634Y-11465722D02*
X12608158Y-11446674D01*
X12608158Y-11446674D02*
X12627205Y-11437150D01*
X12627205Y-11437150D02*
X12655777Y-11437150D01*
X12655777Y-11437150D02*
X12674824Y-11446674D01*
X12674824Y-11446674D02*
X12684348Y-11465722D01*
X12684348Y-11465722D02*
X12684348Y-11570484D01*
X12779586Y-11570484D02*
X12779586Y-11437150D01*
X12779586Y-11456198D02*
X12789110Y-11446674D01*
X12789110Y-11446674D02*
X12808158Y-11437150D01*
X12808158Y-11437150D02*
X12836729Y-11437150D01*
X12836729Y-11437150D02*
X12855777Y-11446674D01*
X12855777Y-11446674D02*
X12865301Y-11465722D01*
X12865301Y-11465722D02*
X12865301Y-11570484D01*
X12865301Y-11465722D02*
X12874824Y-11446674D01*
X12874824Y-11446674D02*
X12893872Y-11437150D01*
X12893872Y-11437150D02*
X12922443Y-11437150D01*
X12922443Y-11437150D02*
X12941491Y-11446674D01*
X12941491Y-11446674D02*
X12951015Y-11465722D01*
X12951015Y-11465722D02*
X12951015Y-11570484D01*
X13341491Y-11360960D02*
X13170063Y-11618103D01*
X13598634Y-11370484D02*
X13617682Y-11370484D01*
X13617682Y-11370484D02*
X13636729Y-11380008D01*
X13636729Y-11380008D02*
X13646253Y-11389531D01*
X13646253Y-11389531D02*
X13655777Y-11408579D01*
X13655777Y-11408579D02*
X13665301Y-11446674D01*
X13665301Y-11446674D02*
X13665301Y-11494293D01*
X13665301Y-11494293D02*
X13655777Y-11532388D01*
X13655777Y-11532388D02*
X13646253Y-11551436D01*
X13646253Y-11551436D02*
X13636729Y-11560960D01*
X13636729Y-11560960D02*
X13617682Y-11570484D01*
X13617682Y-11570484D02*
X13598634Y-11570484D01*
X13598634Y-11570484D02*
X13579586Y-11560960D01*
X13579586Y-11560960D02*
X13570063Y-11551436D01*
X13570063Y-11551436D02*
X13560539Y-11532388D01*
X13560539Y-11532388D02*
X13551015Y-11494293D01*
X13551015Y-11494293D02*
X13551015Y-11446674D01*
X13551015Y-11446674D02*
X13560539Y-11408579D01*
X13560539Y-11408579D02*
X13570063Y-11389531D01*
X13570063Y-11389531D02*
X13579586Y-11380008D01*
X13579586Y-11380008D02*
X13598634Y-11370484D01*
X13751015Y-11551436D02*
X13760539Y-11560960D01*
X13760539Y-11560960D02*
X13751015Y-11570484D01*
X13751015Y-11570484D02*
X13741491Y-11560960D01*
X13741491Y-11560960D02*
X13751015Y-11551436D01*
X13751015Y-11551436D02*
X13751015Y-11570484D01*
X13884348Y-11370484D02*
X13903396Y-11370484D01*
X13903396Y-11370484D02*
X13922444Y-11380008D01*
X13922444Y-11380008D02*
X13931967Y-11389531D01*
X13931967Y-11389531D02*
X13941491Y-11408579D01*
X13941491Y-11408579D02*
X13951015Y-11446674D01*
X13951015Y-11446674D02*
X13951015Y-11494293D01*
X13951015Y-11494293D02*
X13941491Y-11532388D01*
X13941491Y-11532388D02*
X13931967Y-11551436D01*
X13931967Y-11551436D02*
X13922444Y-11560960D01*
X13922444Y-11560960D02*
X13903396Y-11570484D01*
X13903396Y-11570484D02*
X13884348Y-11570484D01*
X13884348Y-11570484D02*
X13865301Y-11560960D01*
X13865301Y-11560960D02*
X13855777Y-11551436D01*
X13855777Y-11551436D02*
X13846253Y-11532388D01*
X13846253Y-11532388D02*
X13836729Y-11494293D01*
X13836729Y-11494293D02*
X13836729Y-11446674D01*
X13836729Y-11446674D02*
X13846253Y-11408579D01*
X13846253Y-11408579D02*
X13855777Y-11389531D01*
X13855777Y-11389531D02*
X13865301Y-11380008D01*
X13865301Y-11380008D02*
X13884348Y-11370484D01*
X14141491Y-11570484D02*
X14027206Y-11570484D01*
X14084348Y-11570484D02*
X14084348Y-11370484D01*
X14084348Y-11370484D02*
X14065301Y-11399055D01*
X14065301Y-11399055D02*
X14046253Y-11418103D01*
X14046253Y-11418103D02*
X14027206Y-11427627D01*
X14236729Y-11570484D02*
X14274825Y-11570484D01*
X14274825Y-11570484D02*
X14293872Y-11560960D01*
X14293872Y-11560960D02*
X14303396Y-11551436D01*
X14303396Y-11551436D02*
X14322444Y-11522865D01*
X14322444Y-11522865D02*
X14331967Y-11484769D01*
X14331967Y-11484769D02*
X14331967Y-11408579D01*
X14331967Y-11408579D02*
X14322444Y-11389531D01*
X14322444Y-11389531D02*
X14312920Y-11380008D01*
X14312920Y-11380008D02*
X14293872Y-11370484D01*
X14293872Y-11370484D02*
X14255777Y-11370484D01*
X14255777Y-11370484D02*
X14236729Y-11380008D01*
X14236729Y-11380008D02*
X14227206Y-11389531D01*
X14227206Y-11389531D02*
X14217682Y-11408579D01*
X14217682Y-11408579D02*
X14217682Y-11456198D01*
X14217682Y-11456198D02*
X14227206Y-11475246D01*
X14227206Y-11475246D02*
X14236729Y-11484769D01*
X14236729Y-11484769D02*
X14255777Y-11494293D01*
X14255777Y-11494293D02*
X14293872Y-11494293D01*
X14293872Y-11494293D02*
X14312920Y-11484769D01*
X14312920Y-11484769D02*
X14322444Y-11475246D01*
X14322444Y-11475246D02*
X14331967Y-11456198D01*
X14398634Y-11370484D02*
X14531967Y-11370484D01*
X14531967Y-11370484D02*
X14446253Y-11570484D01*
X14598634Y-11370484D02*
X14598634Y-11408579D01*
X14674825Y-11370484D02*
X14674825Y-11408579D01*
X14970063Y-11646674D02*
X14960539Y-11637150D01*
X14960539Y-11637150D02*
X14941491Y-11608579D01*
X14941491Y-11608579D02*
X14931968Y-11589531D01*
X14931968Y-11589531D02*
X14922444Y-11560960D01*
X14922444Y-11560960D02*
X14912920Y-11513341D01*
X14912920Y-11513341D02*
X14912920Y-11475246D01*
X14912920Y-11475246D02*
X14922444Y-11427627D01*
X14922444Y-11427627D02*
X14931968Y-11399055D01*
X14931968Y-11399055D02*
X14941491Y-11380008D01*
X14941491Y-11380008D02*
X14960539Y-11351436D01*
X14960539Y-11351436D02*
X14970063Y-11341912D01*
X15027206Y-11370484D02*
X15151015Y-11370484D01*
X15151015Y-11370484D02*
X15084348Y-11446674D01*
X15084348Y-11446674D02*
X15112920Y-11446674D01*
X15112920Y-11446674D02*
X15131968Y-11456198D01*
X15131968Y-11456198D02*
X15141491Y-11465722D01*
X15141491Y-11465722D02*
X15151015Y-11484769D01*
X15151015Y-11484769D02*
X15151015Y-11532388D01*
X15151015Y-11532388D02*
X15141491Y-11551436D01*
X15141491Y-11551436D02*
X15131968Y-11560960D01*
X15131968Y-11560960D02*
X15112920Y-11570484D01*
X15112920Y-11570484D02*
X15055777Y-11570484D01*
X15055777Y-11570484D02*
X15036729Y-11560960D01*
X15036729Y-11560960D02*
X15027206Y-11551436D01*
X15389110Y-11570484D02*
X15389110Y-11370484D01*
X15474825Y-11570484D02*
X15474825Y-11465722D01*
X15474825Y-11465722D02*
X15465301Y-11446674D01*
X15465301Y-11446674D02*
X15446253Y-11437150D01*
X15446253Y-11437150D02*
X15417682Y-11437150D01*
X15417682Y-11437150D02*
X15398634Y-11446674D01*
X15398634Y-11446674D02*
X15389110Y-11456198D01*
X15598634Y-11570484D02*
X15579587Y-11560960D01*
X15579587Y-11560960D02*
X15570063Y-11551436D01*
X15570063Y-11551436D02*
X15560539Y-11532388D01*
X15560539Y-11532388D02*
X15560539Y-11475246D01*
X15560539Y-11475246D02*
X15570063Y-11456198D01*
X15570063Y-11456198D02*
X15579587Y-11446674D01*
X15579587Y-11446674D02*
X15598634Y-11437150D01*
X15598634Y-11437150D02*
X15627206Y-11437150D01*
X15627206Y-11437150D02*
X15646253Y-11446674D01*
X15646253Y-11446674D02*
X15655777Y-11456198D01*
X15655777Y-11456198D02*
X15665301Y-11475246D01*
X15665301Y-11475246D02*
X15665301Y-11532388D01*
X15665301Y-11532388D02*
X15655777Y-11551436D01*
X15655777Y-11551436D02*
X15646253Y-11560960D01*
X15646253Y-11560960D02*
X15627206Y-11570484D01*
X15627206Y-11570484D02*
X15598634Y-11570484D01*
X15779587Y-11570484D02*
X15760539Y-11560960D01*
X15760539Y-11560960D02*
X15751015Y-11541912D01*
X15751015Y-11541912D02*
X15751015Y-11370484D01*
X15931968Y-11560960D02*
X15912920Y-11570484D01*
X15912920Y-11570484D02*
X15874825Y-11570484D01*
X15874825Y-11570484D02*
X15855777Y-11560960D01*
X15855777Y-11560960D02*
X15846253Y-11541912D01*
X15846253Y-11541912D02*
X15846253Y-11465722D01*
X15846253Y-11465722D02*
X15855777Y-11446674D01*
X15855777Y-11446674D02*
X15874825Y-11437150D01*
X15874825Y-11437150D02*
X15912920Y-11437150D01*
X15912920Y-11437150D02*
X15931968Y-11446674D01*
X15931968Y-11446674D02*
X15941491Y-11465722D01*
X15941491Y-11465722D02*
X15941491Y-11484769D01*
X15941491Y-11484769D02*
X15846253Y-11503817D01*
X16017682Y-11560960D02*
X16036730Y-11570484D01*
X16036730Y-11570484D02*
X16074825Y-11570484D01*
X16074825Y-11570484D02*
X16093872Y-11560960D01*
X16093872Y-11560960D02*
X16103396Y-11541912D01*
X16103396Y-11541912D02*
X16103396Y-11532388D01*
X16103396Y-11532388D02*
X16093872Y-11513341D01*
X16093872Y-11513341D02*
X16074825Y-11503817D01*
X16074825Y-11503817D02*
X16046253Y-11503817D01*
X16046253Y-11503817D02*
X16027206Y-11494293D01*
X16027206Y-11494293D02*
X16017682Y-11475246D01*
X16017682Y-11475246D02*
X16017682Y-11465722D01*
X16017682Y-11465722D02*
X16027206Y-11446674D01*
X16027206Y-11446674D02*
X16046253Y-11437150D01*
X16046253Y-11437150D02*
X16074825Y-11437150D01*
X16074825Y-11437150D02*
X16093872Y-11446674D01*
X16170063Y-11646674D02*
X16179587Y-11637150D01*
X16179587Y-11637150D02*
X16198634Y-11608579D01*
X16198634Y-11608579D02*
X16208158Y-11589531D01*
X16208158Y-11589531D02*
X16217682Y-11560960D01*
X16217682Y-11560960D02*
X16227206Y-11513341D01*
X16227206Y-11513341D02*
X16227206Y-11475246D01*
X16227206Y-11475246D02*
X16217682Y-11427627D01*
X16217682Y-11427627D02*
X16208158Y-11399055D01*
X16208158Y-11399055D02*
X16198634Y-11380008D01*
X16198634Y-11380008D02*
X16179587Y-11351436D01*
X16179587Y-11351436D02*
X16170063Y-11341912D01*
D12*
X11315000Y-11663000D02*
X11315000Y-11823000D01*
X11235000Y-11743000D02*
X11395000Y-11743000D01*
D11*
X11760539Y-11834484D02*
X11646253Y-11834484D01*
X11703396Y-11834484D02*
X11703396Y-11634484D01*
X11703396Y-11634484D02*
X11684348Y-11663055D01*
X11684348Y-11663055D02*
X11665301Y-11682103D01*
X11665301Y-11682103D02*
X11646253Y-11691627D01*
X11846253Y-11815436D02*
X11855777Y-11824960D01*
X11855777Y-11824960D02*
X11846253Y-11834484D01*
X11846253Y-11834484D02*
X11836729Y-11824960D01*
X11836729Y-11824960D02*
X11846253Y-11815436D01*
X11846253Y-11815436D02*
X11846253Y-11834484D01*
X12027205Y-11634484D02*
X11989110Y-11634484D01*
X11989110Y-11634484D02*
X11970062Y-11644008D01*
X11970062Y-11644008D02*
X11960539Y-11653531D01*
X11960539Y-11653531D02*
X11941491Y-11682103D01*
X11941491Y-11682103D02*
X11931967Y-11720198D01*
X11931967Y-11720198D02*
X11931967Y-11796388D01*
X11931967Y-11796388D02*
X11941491Y-11815436D01*
X11941491Y-11815436D02*
X11951015Y-11824960D01*
X11951015Y-11824960D02*
X11970062Y-11834484D01*
X11970062Y-11834484D02*
X12008158Y-11834484D01*
X12008158Y-11834484D02*
X12027205Y-11824960D01*
X12027205Y-11824960D02*
X12036729Y-11815436D01*
X12036729Y-11815436D02*
X12046253Y-11796388D01*
X12046253Y-11796388D02*
X12046253Y-11748769D01*
X12046253Y-11748769D02*
X12036729Y-11729722D01*
X12036729Y-11729722D02*
X12027205Y-11720198D01*
X12027205Y-11720198D02*
X12008158Y-11710674D01*
X12008158Y-11710674D02*
X11970062Y-11710674D01*
X11970062Y-11710674D02*
X11951015Y-11720198D01*
X11951015Y-11720198D02*
X11941491Y-11729722D01*
X11941491Y-11729722D02*
X11931967Y-11748769D01*
X12170062Y-11634484D02*
X12189110Y-11634484D01*
X12189110Y-11634484D02*
X12208158Y-11644008D01*
X12208158Y-11644008D02*
X12217682Y-11653531D01*
X12217682Y-11653531D02*
X12227205Y-11672579D01*
X12227205Y-11672579D02*
X12236729Y-11710674D01*
X12236729Y-11710674D02*
X12236729Y-11758293D01*
X12236729Y-11758293D02*
X12227205Y-11796388D01*
X12227205Y-11796388D02*
X12217682Y-11815436D01*
X12217682Y-11815436D02*
X12208158Y-11824960D01*
X12208158Y-11824960D02*
X12189110Y-11834484D01*
X12189110Y-11834484D02*
X12170062Y-11834484D01*
X12170062Y-11834484D02*
X12151015Y-11824960D01*
X12151015Y-11824960D02*
X12141491Y-11815436D01*
X12141491Y-11815436D02*
X12131967Y-11796388D01*
X12131967Y-11796388D02*
X12122443Y-11758293D01*
X12122443Y-11758293D02*
X12122443Y-11710674D01*
X12122443Y-11710674D02*
X12131967Y-11672579D01*
X12131967Y-11672579D02*
X12141491Y-11653531D01*
X12141491Y-11653531D02*
X12151015Y-11644008D01*
X12151015Y-11644008D02*
X12170062Y-11634484D01*
X12360539Y-11634484D02*
X12379586Y-11634484D01*
X12379586Y-11634484D02*
X12398634Y-11644008D01*
X12398634Y-11644008D02*
X12408158Y-11653531D01*
X12408158Y-11653531D02*
X12417682Y-11672579D01*
X12417682Y-11672579D02*
X12427205Y-11710674D01*
X12427205Y-11710674D02*
X12427205Y-11758293D01*
X12427205Y-11758293D02*
X12417682Y-11796388D01*
X12417682Y-11796388D02*
X12408158Y-11815436D01*
X12408158Y-11815436D02*
X12398634Y-11824960D01*
X12398634Y-11824960D02*
X12379586Y-11834484D01*
X12379586Y-11834484D02*
X12360539Y-11834484D01*
X12360539Y-11834484D02*
X12341491Y-11824960D01*
X12341491Y-11824960D02*
X12331967Y-11815436D01*
X12331967Y-11815436D02*
X12322443Y-11796388D01*
X12322443Y-11796388D02*
X12312920Y-11758293D01*
X12312920Y-11758293D02*
X12312920Y-11710674D01*
X12312920Y-11710674D02*
X12322443Y-11672579D01*
X12322443Y-11672579D02*
X12331967Y-11653531D01*
X12331967Y-11653531D02*
X12341491Y-11644008D01*
X12341491Y-11644008D02*
X12360539Y-11634484D01*
X12512920Y-11834484D02*
X12512920Y-11701150D01*
X12512920Y-11720198D02*
X12522443Y-11710674D01*
X12522443Y-11710674D02*
X12541491Y-11701150D01*
X12541491Y-11701150D02*
X12570063Y-11701150D01*
X12570063Y-11701150D02*
X12589110Y-11710674D01*
X12589110Y-11710674D02*
X12598634Y-11729722D01*
X12598634Y-11729722D02*
X12598634Y-11834484D01*
X12598634Y-11729722D02*
X12608158Y-11710674D01*
X12608158Y-11710674D02*
X12627205Y-11701150D01*
X12627205Y-11701150D02*
X12655777Y-11701150D01*
X12655777Y-11701150D02*
X12674824Y-11710674D01*
X12674824Y-11710674D02*
X12684348Y-11729722D01*
X12684348Y-11729722D02*
X12684348Y-11834484D01*
X12779586Y-11834484D02*
X12779586Y-11701150D01*
X12779586Y-11720198D02*
X12789110Y-11710674D01*
X12789110Y-11710674D02*
X12808158Y-11701150D01*
X12808158Y-11701150D02*
X12836729Y-11701150D01*
X12836729Y-11701150D02*
X12855777Y-11710674D01*
X12855777Y-11710674D02*
X12865301Y-11729722D01*
X12865301Y-11729722D02*
X12865301Y-11834484D01*
X12865301Y-11729722D02*
X12874824Y-11710674D01*
X12874824Y-11710674D02*
X12893872Y-11701150D01*
X12893872Y-11701150D02*
X12922443Y-11701150D01*
X12922443Y-11701150D02*
X12941491Y-11710674D01*
X12941491Y-11710674D02*
X12951015Y-11729722D01*
X12951015Y-11729722D02*
X12951015Y-11834484D01*
X13341491Y-11624960D02*
X13170063Y-11882103D01*
X13598634Y-11634484D02*
X13617682Y-11634484D01*
X13617682Y-11634484D02*
X13636729Y-11644008D01*
X13636729Y-11644008D02*
X13646253Y-11653531D01*
X13646253Y-11653531D02*
X13655777Y-11672579D01*
X13655777Y-11672579D02*
X13665301Y-11710674D01*
X13665301Y-11710674D02*
X13665301Y-11758293D01*
X13665301Y-11758293D02*
X13655777Y-11796388D01*
X13655777Y-11796388D02*
X13646253Y-11815436D01*
X13646253Y-11815436D02*
X13636729Y-11824960D01*
X13636729Y-11824960D02*
X13617682Y-11834484D01*
X13617682Y-11834484D02*
X13598634Y-11834484D01*
X13598634Y-11834484D02*
X13579586Y-11824960D01*
X13579586Y-11824960D02*
X13570063Y-11815436D01*
X13570063Y-11815436D02*
X13560539Y-11796388D01*
X13560539Y-11796388D02*
X13551015Y-11758293D01*
X13551015Y-11758293D02*
X13551015Y-11710674D01*
X13551015Y-11710674D02*
X13560539Y-11672579D01*
X13560539Y-11672579D02*
X13570063Y-11653531D01*
X13570063Y-11653531D02*
X13579586Y-11644008D01*
X13579586Y-11644008D02*
X13598634Y-11634484D01*
X13751015Y-11815436D02*
X13760539Y-11824960D01*
X13760539Y-11824960D02*
X13751015Y-11834484D01*
X13751015Y-11834484D02*
X13741491Y-11824960D01*
X13741491Y-11824960D02*
X13751015Y-11815436D01*
X13751015Y-11815436D02*
X13751015Y-11834484D01*
X13884348Y-11634484D02*
X13903396Y-11634484D01*
X13903396Y-11634484D02*
X13922444Y-11644008D01*
X13922444Y-11644008D02*
X13931967Y-11653531D01*
X13931967Y-11653531D02*
X13941491Y-11672579D01*
X13941491Y-11672579D02*
X13951015Y-11710674D01*
X13951015Y-11710674D02*
X13951015Y-11758293D01*
X13951015Y-11758293D02*
X13941491Y-11796388D01*
X13941491Y-11796388D02*
X13931967Y-11815436D01*
X13931967Y-11815436D02*
X13922444Y-11824960D01*
X13922444Y-11824960D02*
X13903396Y-11834484D01*
X13903396Y-11834484D02*
X13884348Y-11834484D01*
X13884348Y-11834484D02*
X13865301Y-11824960D01*
X13865301Y-11824960D02*
X13855777Y-11815436D01*
X13855777Y-11815436D02*
X13846253Y-11796388D01*
X13846253Y-11796388D02*
X13836729Y-11758293D01*
X13836729Y-11758293D02*
X13836729Y-11710674D01*
X13836729Y-11710674D02*
X13846253Y-11672579D01*
X13846253Y-11672579D02*
X13855777Y-11653531D01*
X13855777Y-11653531D02*
X13865301Y-11644008D01*
X13865301Y-11644008D02*
X13884348Y-11634484D01*
X14122444Y-11634484D02*
X14084348Y-11634484D01*
X14084348Y-11634484D02*
X14065301Y-11644008D01*
X14065301Y-11644008D02*
X14055777Y-11653531D01*
X14055777Y-11653531D02*
X14036729Y-11682103D01*
X14036729Y-11682103D02*
X14027206Y-11720198D01*
X14027206Y-11720198D02*
X14027206Y-11796388D01*
X14027206Y-11796388D02*
X14036729Y-11815436D01*
X14036729Y-11815436D02*
X14046253Y-11824960D01*
X14046253Y-11824960D02*
X14065301Y-11834484D01*
X14065301Y-11834484D02*
X14103396Y-11834484D01*
X14103396Y-11834484D02*
X14122444Y-11824960D01*
X14122444Y-11824960D02*
X14131967Y-11815436D01*
X14131967Y-11815436D02*
X14141491Y-11796388D01*
X14141491Y-11796388D02*
X14141491Y-11748769D01*
X14141491Y-11748769D02*
X14131967Y-11729722D01*
X14131967Y-11729722D02*
X14122444Y-11720198D01*
X14122444Y-11720198D02*
X14103396Y-11710674D01*
X14103396Y-11710674D02*
X14065301Y-11710674D01*
X14065301Y-11710674D02*
X14046253Y-11720198D01*
X14046253Y-11720198D02*
X14036729Y-11729722D01*
X14036729Y-11729722D02*
X14027206Y-11748769D01*
X14208158Y-11634484D02*
X14331967Y-11634484D01*
X14331967Y-11634484D02*
X14265301Y-11710674D01*
X14265301Y-11710674D02*
X14293872Y-11710674D01*
X14293872Y-11710674D02*
X14312920Y-11720198D01*
X14312920Y-11720198D02*
X14322444Y-11729722D01*
X14322444Y-11729722D02*
X14331967Y-11748769D01*
X14331967Y-11748769D02*
X14331967Y-11796388D01*
X14331967Y-11796388D02*
X14322444Y-11815436D01*
X14322444Y-11815436D02*
X14312920Y-11824960D01*
X14312920Y-11824960D02*
X14293872Y-11834484D01*
X14293872Y-11834484D02*
X14236729Y-11834484D01*
X14236729Y-11834484D02*
X14217682Y-11824960D01*
X14217682Y-11824960D02*
X14208158Y-11815436D01*
X14455777Y-11634484D02*
X14474825Y-11634484D01*
X14474825Y-11634484D02*
X14493872Y-11644008D01*
X14493872Y-11644008D02*
X14503396Y-11653531D01*
X14503396Y-11653531D02*
X14512920Y-11672579D01*
X14512920Y-11672579D02*
X14522444Y-11710674D01*
X14522444Y-11710674D02*
X14522444Y-11758293D01*
X14522444Y-11758293D02*
X14512920Y-11796388D01*
X14512920Y-11796388D02*
X14503396Y-11815436D01*
X14503396Y-11815436D02*
X14493872Y-11824960D01*
X14493872Y-11824960D02*
X14474825Y-11834484D01*
X14474825Y-11834484D02*
X14455777Y-11834484D01*
X14455777Y-11834484D02*
X14436729Y-11824960D01*
X14436729Y-11824960D02*
X14427206Y-11815436D01*
X14427206Y-11815436D02*
X14417682Y-11796388D01*
X14417682Y-11796388D02*
X14408158Y-11758293D01*
X14408158Y-11758293D02*
X14408158Y-11710674D01*
X14408158Y-11710674D02*
X14417682Y-11672579D01*
X14417682Y-11672579D02*
X14427206Y-11653531D01*
X14427206Y-11653531D02*
X14436729Y-11644008D01*
X14436729Y-11644008D02*
X14455777Y-11634484D01*
X14598634Y-11634484D02*
X14598634Y-11672579D01*
X14674825Y-11634484D02*
X14674825Y-11672579D01*
X14970063Y-11910674D02*
X14960539Y-11901150D01*
X14960539Y-11901150D02*
X14941491Y-11872579D01*
X14941491Y-11872579D02*
X14931968Y-11853531D01*
X14931968Y-11853531D02*
X14922444Y-11824960D01*
X14922444Y-11824960D02*
X14912920Y-11777341D01*
X14912920Y-11777341D02*
X14912920Y-11739246D01*
X14912920Y-11739246D02*
X14922444Y-11691627D01*
X14922444Y-11691627D02*
X14931968Y-11663055D01*
X14931968Y-11663055D02*
X14941491Y-11644008D01*
X14941491Y-11644008D02*
X14960539Y-11615436D01*
X14960539Y-11615436D02*
X14970063Y-11605912D01*
X15151015Y-11834484D02*
X15036729Y-11834484D01*
X15093872Y-11834484D02*
X15093872Y-11634484D01*
X15093872Y-11634484D02*
X15074825Y-11663055D01*
X15074825Y-11663055D02*
X15055777Y-11682103D01*
X15055777Y-11682103D02*
X15036729Y-11691627D01*
X15227206Y-11653531D02*
X15236729Y-11644008D01*
X15236729Y-11644008D02*
X15255777Y-11634484D01*
X15255777Y-11634484D02*
X15303396Y-11634484D01*
X15303396Y-11634484D02*
X15322444Y-11644008D01*
X15322444Y-11644008D02*
X15331968Y-11653531D01*
X15331968Y-11653531D02*
X15341491Y-11672579D01*
X15341491Y-11672579D02*
X15341491Y-11691627D01*
X15341491Y-11691627D02*
X15331968Y-11720198D01*
X15331968Y-11720198D02*
X15217682Y-11834484D01*
X15217682Y-11834484D02*
X15341491Y-11834484D01*
X15579587Y-11834484D02*
X15579587Y-11634484D01*
X15665301Y-11834484D02*
X15665301Y-11729722D01*
X15665301Y-11729722D02*
X15655777Y-11710674D01*
X15655777Y-11710674D02*
X15636730Y-11701150D01*
X15636730Y-11701150D02*
X15608158Y-11701150D01*
X15608158Y-11701150D02*
X15589110Y-11710674D01*
X15589110Y-11710674D02*
X15579587Y-11720198D01*
X15789110Y-11834484D02*
X15770063Y-11824960D01*
X15770063Y-11824960D02*
X15760539Y-11815436D01*
X15760539Y-11815436D02*
X15751015Y-11796388D01*
X15751015Y-11796388D02*
X15751015Y-11739246D01*
X15751015Y-11739246D02*
X15760539Y-11720198D01*
X15760539Y-11720198D02*
X15770063Y-11710674D01*
X15770063Y-11710674D02*
X15789110Y-11701150D01*
X15789110Y-11701150D02*
X15817682Y-11701150D01*
X15817682Y-11701150D02*
X15836730Y-11710674D01*
X15836730Y-11710674D02*
X15846253Y-11720198D01*
X15846253Y-11720198D02*
X15855777Y-11739246D01*
X15855777Y-11739246D02*
X15855777Y-11796388D01*
X15855777Y-11796388D02*
X15846253Y-11815436D01*
X15846253Y-11815436D02*
X15836730Y-11824960D01*
X15836730Y-11824960D02*
X15817682Y-11834484D01*
X15817682Y-11834484D02*
X15789110Y-11834484D01*
X15970063Y-11834484D02*
X15951015Y-11824960D01*
X15951015Y-11824960D02*
X15941491Y-11805912D01*
X15941491Y-11805912D02*
X15941491Y-11634484D01*
X16122444Y-11824960D02*
X16103396Y-11834484D01*
X16103396Y-11834484D02*
X16065301Y-11834484D01*
X16065301Y-11834484D02*
X16046253Y-11824960D01*
X16046253Y-11824960D02*
X16036730Y-11805912D01*
X16036730Y-11805912D02*
X16036730Y-11729722D01*
X16036730Y-11729722D02*
X16046253Y-11710674D01*
X16046253Y-11710674D02*
X16065301Y-11701150D01*
X16065301Y-11701150D02*
X16103396Y-11701150D01*
X16103396Y-11701150D02*
X16122444Y-11710674D01*
X16122444Y-11710674D02*
X16131968Y-11729722D01*
X16131968Y-11729722D02*
X16131968Y-11748769D01*
X16131968Y-11748769D02*
X16036730Y-11767817D01*
X16208158Y-11824960D02*
X16227206Y-11834484D01*
X16227206Y-11834484D02*
X16265301Y-11834484D01*
X16265301Y-11834484D02*
X16284349Y-11824960D01*
X16284349Y-11824960D02*
X16293872Y-11805912D01*
X16293872Y-11805912D02*
X16293872Y-11796388D01*
X16293872Y-11796388D02*
X16284349Y-11777341D01*
X16284349Y-11777341D02*
X16265301Y-11767817D01*
X16265301Y-11767817D02*
X16236730Y-11767817D01*
X16236730Y-11767817D02*
X16217682Y-11758293D01*
X16217682Y-11758293D02*
X16208158Y-11739246D01*
X16208158Y-11739246D02*
X16208158Y-11729722D01*
X16208158Y-11729722D02*
X16217682Y-11710674D01*
X16217682Y-11710674D02*
X16236730Y-11701150D01*
X16236730Y-11701150D02*
X16265301Y-11701150D01*
X16265301Y-11701150D02*
X16284349Y-11710674D01*
X16360539Y-11910674D02*
X16370063Y-11901150D01*
X16370063Y-11901150D02*
X16389111Y-11872579D01*
X16389111Y-11872579D02*
X16398634Y-11853531D01*
X16398634Y-11853531D02*
X16408158Y-11824960D01*
X16408158Y-11824960D02*
X16417682Y-11777341D01*
X16417682Y-11777341D02*
X16417682Y-11739246D01*
X16417682Y-11739246D02*
X16408158Y-11691627D01*
X16408158Y-11691627D02*
X16398634Y-11663055D01*
X16398634Y-11663055D02*
X16389111Y-11644008D01*
X16389111Y-11644008D02*
X16370063Y-11615436D01*
X16370063Y-11615436D02*
X16360539Y-11605912D01*
M02*
