%TF.GenerationSoftware,KiCad,Pcbnew,8.0.1*%
%TF.CreationDate,2024-04-15T20:02:01-07:00*%
%TF.ProjectId,Ideal OR Diode,49646561-6c20-44f5-9220-44696f64652e,1.0*%
%TF.SameCoordinates,Original*%
%TF.FileFunction,Legend,Top*%
%TF.FilePolarity,Positive*%
%FSLAX46Y46*%
G04 Gerber Fmt 4.6, Leading zero omitted, Abs format (unit mm)*
G04 Created by KiCad (PCBNEW 8.0.1) date 2024-04-15 20:02:01*
%MOMM*%
%LPD*%
G01*
G04 APERTURE LIST*
%ADD10C,0.150000*%
%ADD11C,0.120000*%
G04 APERTURE END LIST*
D10*
X120866666Y-85754819D02*
X120866666Y-86469104D01*
X120866666Y-86469104D02*
X120819047Y-86611961D01*
X120819047Y-86611961D02*
X120723809Y-86707200D01*
X120723809Y-86707200D02*
X120580952Y-86754819D01*
X120580952Y-86754819D02*
X120485714Y-86754819D01*
X121866666Y-86754819D02*
X121295238Y-86754819D01*
X121580952Y-86754819D02*
X121580952Y-85754819D01*
X121580952Y-85754819D02*
X121485714Y-85897676D01*
X121485714Y-85897676D02*
X121390476Y-85992914D01*
X121390476Y-85992914D02*
X121295238Y-86040533D01*
X130004761Y-64950057D02*
X129909523Y-64902438D01*
X129909523Y-64902438D02*
X129814285Y-64807200D01*
X129814285Y-64807200D02*
X129671428Y-64664342D01*
X129671428Y-64664342D02*
X129576190Y-64616723D01*
X129576190Y-64616723D02*
X129480952Y-64616723D01*
X129528571Y-64854819D02*
X129433333Y-64807200D01*
X129433333Y-64807200D02*
X129338095Y-64711961D01*
X129338095Y-64711961D02*
X129290476Y-64521485D01*
X129290476Y-64521485D02*
X129290476Y-64188152D01*
X129290476Y-64188152D02*
X129338095Y-63997676D01*
X129338095Y-63997676D02*
X129433333Y-63902438D01*
X129433333Y-63902438D02*
X129528571Y-63854819D01*
X129528571Y-63854819D02*
X129719047Y-63854819D01*
X129719047Y-63854819D02*
X129814285Y-63902438D01*
X129814285Y-63902438D02*
X129909523Y-63997676D01*
X129909523Y-63997676D02*
X129957142Y-64188152D01*
X129957142Y-64188152D02*
X129957142Y-64521485D01*
X129957142Y-64521485D02*
X129909523Y-64711961D01*
X129909523Y-64711961D02*
X129814285Y-64807200D01*
X129814285Y-64807200D02*
X129719047Y-64854819D01*
X129719047Y-64854819D02*
X129528571Y-64854819D01*
X130814285Y-64188152D02*
X130814285Y-64854819D01*
X130576190Y-63807200D02*
X130338095Y-64521485D01*
X130338095Y-64521485D02*
X130957142Y-64521485D01*
X130404761Y-101600057D02*
X130309523Y-101552438D01*
X130309523Y-101552438D02*
X130214285Y-101457200D01*
X130214285Y-101457200D02*
X130071428Y-101314342D01*
X130071428Y-101314342D02*
X129976190Y-101266723D01*
X129976190Y-101266723D02*
X129880952Y-101266723D01*
X129928571Y-101504819D02*
X129833333Y-101457200D01*
X129833333Y-101457200D02*
X129738095Y-101361961D01*
X129738095Y-101361961D02*
X129690476Y-101171485D01*
X129690476Y-101171485D02*
X129690476Y-100838152D01*
X129690476Y-100838152D02*
X129738095Y-100647676D01*
X129738095Y-100647676D02*
X129833333Y-100552438D01*
X129833333Y-100552438D02*
X129928571Y-100504819D01*
X129928571Y-100504819D02*
X130119047Y-100504819D01*
X130119047Y-100504819D02*
X130214285Y-100552438D01*
X130214285Y-100552438D02*
X130309523Y-100647676D01*
X130309523Y-100647676D02*
X130357142Y-100838152D01*
X130357142Y-100838152D02*
X130357142Y-101171485D01*
X130357142Y-101171485D02*
X130309523Y-101361961D01*
X130309523Y-101361961D02*
X130214285Y-101457200D01*
X130214285Y-101457200D02*
X130119047Y-101504819D01*
X130119047Y-101504819D02*
X129928571Y-101504819D01*
X130690476Y-100504819D02*
X131309523Y-100504819D01*
X131309523Y-100504819D02*
X130976190Y-100885771D01*
X130976190Y-100885771D02*
X131119047Y-100885771D01*
X131119047Y-100885771D02*
X131214285Y-100933390D01*
X131214285Y-100933390D02*
X131261904Y-100981009D01*
X131261904Y-100981009D02*
X131309523Y-101076247D01*
X131309523Y-101076247D02*
X131309523Y-101314342D01*
X131309523Y-101314342D02*
X131261904Y-101409580D01*
X131261904Y-101409580D02*
X131214285Y-101457200D01*
X131214285Y-101457200D02*
X131119047Y-101504819D01*
X131119047Y-101504819D02*
X130833333Y-101504819D01*
X130833333Y-101504819D02*
X130738095Y-101457200D01*
X130738095Y-101457200D02*
X130690476Y-101409580D01*
X126933333Y-78959580D02*
X126885714Y-79007200D01*
X126885714Y-79007200D02*
X126742857Y-79054819D01*
X126742857Y-79054819D02*
X126647619Y-79054819D01*
X126647619Y-79054819D02*
X126504762Y-79007200D01*
X126504762Y-79007200D02*
X126409524Y-78911961D01*
X126409524Y-78911961D02*
X126361905Y-78816723D01*
X126361905Y-78816723D02*
X126314286Y-78626247D01*
X126314286Y-78626247D02*
X126314286Y-78483390D01*
X126314286Y-78483390D02*
X126361905Y-78292914D01*
X126361905Y-78292914D02*
X126409524Y-78197676D01*
X126409524Y-78197676D02*
X126504762Y-78102438D01*
X126504762Y-78102438D02*
X126647619Y-78054819D01*
X126647619Y-78054819D02*
X126742857Y-78054819D01*
X126742857Y-78054819D02*
X126885714Y-78102438D01*
X126885714Y-78102438D02*
X126933333Y-78150057D01*
X127314286Y-78150057D02*
X127361905Y-78102438D01*
X127361905Y-78102438D02*
X127457143Y-78054819D01*
X127457143Y-78054819D02*
X127695238Y-78054819D01*
X127695238Y-78054819D02*
X127790476Y-78102438D01*
X127790476Y-78102438D02*
X127838095Y-78150057D01*
X127838095Y-78150057D02*
X127885714Y-78245295D01*
X127885714Y-78245295D02*
X127885714Y-78340533D01*
X127885714Y-78340533D02*
X127838095Y-78483390D01*
X127838095Y-78483390D02*
X127266667Y-79054819D01*
X127266667Y-79054819D02*
X127885714Y-79054819D01*
X134033333Y-75359580D02*
X133985714Y-75407200D01*
X133985714Y-75407200D02*
X133842857Y-75454819D01*
X133842857Y-75454819D02*
X133747619Y-75454819D01*
X133747619Y-75454819D02*
X133604762Y-75407200D01*
X133604762Y-75407200D02*
X133509524Y-75311961D01*
X133509524Y-75311961D02*
X133461905Y-75216723D01*
X133461905Y-75216723D02*
X133414286Y-75026247D01*
X133414286Y-75026247D02*
X133414286Y-74883390D01*
X133414286Y-74883390D02*
X133461905Y-74692914D01*
X133461905Y-74692914D02*
X133509524Y-74597676D01*
X133509524Y-74597676D02*
X133604762Y-74502438D01*
X133604762Y-74502438D02*
X133747619Y-74454819D01*
X133747619Y-74454819D02*
X133842857Y-74454819D01*
X133842857Y-74454819D02*
X133985714Y-74502438D01*
X133985714Y-74502438D02*
X134033333Y-74550057D01*
X134366667Y-74454819D02*
X134985714Y-74454819D01*
X134985714Y-74454819D02*
X134652381Y-74835771D01*
X134652381Y-74835771D02*
X134795238Y-74835771D01*
X134795238Y-74835771D02*
X134890476Y-74883390D01*
X134890476Y-74883390D02*
X134938095Y-74931009D01*
X134938095Y-74931009D02*
X134985714Y-75026247D01*
X134985714Y-75026247D02*
X134985714Y-75264342D01*
X134985714Y-75264342D02*
X134938095Y-75359580D01*
X134938095Y-75359580D02*
X134890476Y-75407200D01*
X134890476Y-75407200D02*
X134795238Y-75454819D01*
X134795238Y-75454819D02*
X134509524Y-75454819D01*
X134509524Y-75454819D02*
X134414286Y-75407200D01*
X134414286Y-75407200D02*
X134366667Y-75359580D01*
X130304761Y-71950057D02*
X130209523Y-71902438D01*
X130209523Y-71902438D02*
X130114285Y-71807200D01*
X130114285Y-71807200D02*
X129971428Y-71664342D01*
X129971428Y-71664342D02*
X129876190Y-71616723D01*
X129876190Y-71616723D02*
X129780952Y-71616723D01*
X129828571Y-71854819D02*
X129733333Y-71807200D01*
X129733333Y-71807200D02*
X129638095Y-71711961D01*
X129638095Y-71711961D02*
X129590476Y-71521485D01*
X129590476Y-71521485D02*
X129590476Y-71188152D01*
X129590476Y-71188152D02*
X129638095Y-70997676D01*
X129638095Y-70997676D02*
X129733333Y-70902438D01*
X129733333Y-70902438D02*
X129828571Y-70854819D01*
X129828571Y-70854819D02*
X130019047Y-70854819D01*
X130019047Y-70854819D02*
X130114285Y-70902438D01*
X130114285Y-70902438D02*
X130209523Y-70997676D01*
X130209523Y-70997676D02*
X130257142Y-71188152D01*
X130257142Y-71188152D02*
X130257142Y-71521485D01*
X130257142Y-71521485D02*
X130209523Y-71711961D01*
X130209523Y-71711961D02*
X130114285Y-71807200D01*
X130114285Y-71807200D02*
X130019047Y-71854819D01*
X130019047Y-71854819D02*
X129828571Y-71854819D01*
X130638095Y-70950057D02*
X130685714Y-70902438D01*
X130685714Y-70902438D02*
X130780952Y-70854819D01*
X130780952Y-70854819D02*
X131019047Y-70854819D01*
X131019047Y-70854819D02*
X131114285Y-70902438D01*
X131114285Y-70902438D02*
X131161904Y-70950057D01*
X131161904Y-70950057D02*
X131209523Y-71045295D01*
X131209523Y-71045295D02*
X131209523Y-71140533D01*
X131209523Y-71140533D02*
X131161904Y-71283390D01*
X131161904Y-71283390D02*
X130590476Y-71854819D01*
X130590476Y-71854819D02*
X131209523Y-71854819D01*
X136616666Y-80154819D02*
X136616666Y-80869104D01*
X136616666Y-80869104D02*
X136569047Y-81011961D01*
X136569047Y-81011961D02*
X136473809Y-81107200D01*
X136473809Y-81107200D02*
X136330952Y-81154819D01*
X136330952Y-81154819D02*
X136235714Y-81154819D01*
X137521428Y-80488152D02*
X137521428Y-81154819D01*
X137283333Y-80107200D02*
X137045238Y-80821485D01*
X137045238Y-80821485D02*
X137664285Y-80821485D01*
X134833333Y-90859580D02*
X134785714Y-90907200D01*
X134785714Y-90907200D02*
X134642857Y-90954819D01*
X134642857Y-90954819D02*
X134547619Y-90954819D01*
X134547619Y-90954819D02*
X134404762Y-90907200D01*
X134404762Y-90907200D02*
X134309524Y-90811961D01*
X134309524Y-90811961D02*
X134261905Y-90716723D01*
X134261905Y-90716723D02*
X134214286Y-90526247D01*
X134214286Y-90526247D02*
X134214286Y-90383390D01*
X134214286Y-90383390D02*
X134261905Y-90192914D01*
X134261905Y-90192914D02*
X134309524Y-90097676D01*
X134309524Y-90097676D02*
X134404762Y-90002438D01*
X134404762Y-90002438D02*
X134547619Y-89954819D01*
X134547619Y-89954819D02*
X134642857Y-89954819D01*
X134642857Y-89954819D02*
X134785714Y-90002438D01*
X134785714Y-90002438D02*
X134833333Y-90050057D01*
X135785714Y-90954819D02*
X135214286Y-90954819D01*
X135500000Y-90954819D02*
X135500000Y-89954819D01*
X135500000Y-89954819D02*
X135404762Y-90097676D01*
X135404762Y-90097676D02*
X135309524Y-90192914D01*
X135309524Y-90192914D02*
X135214286Y-90240533D01*
X127424819Y-81679166D02*
X126948628Y-82012499D01*
X127424819Y-82250594D02*
X126424819Y-82250594D01*
X126424819Y-82250594D02*
X126424819Y-81869642D01*
X126424819Y-81869642D02*
X126472438Y-81774404D01*
X126472438Y-81774404D02*
X126520057Y-81726785D01*
X126520057Y-81726785D02*
X126615295Y-81679166D01*
X126615295Y-81679166D02*
X126758152Y-81679166D01*
X126758152Y-81679166D02*
X126853390Y-81726785D01*
X126853390Y-81726785D02*
X126901009Y-81774404D01*
X126901009Y-81774404D02*
X126948628Y-81869642D01*
X126948628Y-81869642D02*
X126948628Y-82250594D01*
X126520057Y-81298213D02*
X126472438Y-81250594D01*
X126472438Y-81250594D02*
X126424819Y-81155356D01*
X126424819Y-81155356D02*
X126424819Y-80917261D01*
X126424819Y-80917261D02*
X126472438Y-80822023D01*
X126472438Y-80822023D02*
X126520057Y-80774404D01*
X126520057Y-80774404D02*
X126615295Y-80726785D01*
X126615295Y-80726785D02*
X126710533Y-80726785D01*
X126710533Y-80726785D02*
X126853390Y-80774404D01*
X126853390Y-80774404D02*
X127424819Y-81345832D01*
X127424819Y-81345832D02*
X127424819Y-80726785D01*
X127354819Y-85466666D02*
X126878628Y-85799999D01*
X127354819Y-86038094D02*
X126354819Y-86038094D01*
X126354819Y-86038094D02*
X126354819Y-85657142D01*
X126354819Y-85657142D02*
X126402438Y-85561904D01*
X126402438Y-85561904D02*
X126450057Y-85514285D01*
X126450057Y-85514285D02*
X126545295Y-85466666D01*
X126545295Y-85466666D02*
X126688152Y-85466666D01*
X126688152Y-85466666D02*
X126783390Y-85514285D01*
X126783390Y-85514285D02*
X126831009Y-85561904D01*
X126831009Y-85561904D02*
X126878628Y-85657142D01*
X126878628Y-85657142D02*
X126878628Y-86038094D01*
X127354819Y-84514285D02*
X127354819Y-85085713D01*
X127354819Y-84799999D02*
X126354819Y-84799999D01*
X126354819Y-84799999D02*
X126497676Y-84895237D01*
X126497676Y-84895237D02*
X126592914Y-84990475D01*
X126592914Y-84990475D02*
X126640533Y-85085713D01*
X145166666Y-76694819D02*
X145166666Y-77409104D01*
X145166666Y-77409104D02*
X145119047Y-77551961D01*
X145119047Y-77551961D02*
X145023809Y-77647200D01*
X145023809Y-77647200D02*
X144880952Y-77694819D01*
X144880952Y-77694819D02*
X144785714Y-77694819D01*
X145547619Y-76694819D02*
X146166666Y-76694819D01*
X146166666Y-76694819D02*
X145833333Y-77075771D01*
X145833333Y-77075771D02*
X145976190Y-77075771D01*
X145976190Y-77075771D02*
X146071428Y-77123390D01*
X146071428Y-77123390D02*
X146119047Y-77171009D01*
X146119047Y-77171009D02*
X146166666Y-77266247D01*
X146166666Y-77266247D02*
X146166666Y-77504342D01*
X146166666Y-77504342D02*
X146119047Y-77599580D01*
X146119047Y-77599580D02*
X146071428Y-77647200D01*
X146071428Y-77647200D02*
X145976190Y-77694819D01*
X145976190Y-77694819D02*
X145690476Y-77694819D01*
X145690476Y-77694819D02*
X145595238Y-77647200D01*
X145595238Y-77647200D02*
X145547619Y-77599580D01*
X120766666Y-65554819D02*
X120766666Y-66269104D01*
X120766666Y-66269104D02*
X120719047Y-66411961D01*
X120719047Y-66411961D02*
X120623809Y-66507200D01*
X120623809Y-66507200D02*
X120480952Y-66554819D01*
X120480952Y-66554819D02*
X120385714Y-66554819D01*
X121195238Y-65650057D02*
X121242857Y-65602438D01*
X121242857Y-65602438D02*
X121338095Y-65554819D01*
X121338095Y-65554819D02*
X121576190Y-65554819D01*
X121576190Y-65554819D02*
X121671428Y-65602438D01*
X121671428Y-65602438D02*
X121719047Y-65650057D01*
X121719047Y-65650057D02*
X121766666Y-65745295D01*
X121766666Y-65745295D02*
X121766666Y-65840533D01*
X121766666Y-65840533D02*
X121719047Y-65983390D01*
X121719047Y-65983390D02*
X121147619Y-66554819D01*
X121147619Y-66554819D02*
X121766666Y-66554819D01*
X128954819Y-88461904D02*
X129764342Y-88461904D01*
X129764342Y-88461904D02*
X129859580Y-88414285D01*
X129859580Y-88414285D02*
X129907200Y-88366666D01*
X129907200Y-88366666D02*
X129954819Y-88271428D01*
X129954819Y-88271428D02*
X129954819Y-88080952D01*
X129954819Y-88080952D02*
X129907200Y-87985714D01*
X129907200Y-87985714D02*
X129859580Y-87938095D01*
X129859580Y-87938095D02*
X129764342Y-87890476D01*
X129764342Y-87890476D02*
X128954819Y-87890476D01*
X129954819Y-86890476D02*
X129954819Y-87461904D01*
X129954819Y-87176190D02*
X128954819Y-87176190D01*
X128954819Y-87176190D02*
X129097676Y-87271428D01*
X129097676Y-87271428D02*
X129192914Y-87366666D01*
X129192914Y-87366666D02*
X129240533Y-87461904D01*
X130304761Y-95250057D02*
X130209523Y-95202438D01*
X130209523Y-95202438D02*
X130114285Y-95107200D01*
X130114285Y-95107200D02*
X129971428Y-94964342D01*
X129971428Y-94964342D02*
X129876190Y-94916723D01*
X129876190Y-94916723D02*
X129780952Y-94916723D01*
X129828571Y-95154819D02*
X129733333Y-95107200D01*
X129733333Y-95107200D02*
X129638095Y-95011961D01*
X129638095Y-95011961D02*
X129590476Y-94821485D01*
X129590476Y-94821485D02*
X129590476Y-94488152D01*
X129590476Y-94488152D02*
X129638095Y-94297676D01*
X129638095Y-94297676D02*
X129733333Y-94202438D01*
X129733333Y-94202438D02*
X129828571Y-94154819D01*
X129828571Y-94154819D02*
X130019047Y-94154819D01*
X130019047Y-94154819D02*
X130114285Y-94202438D01*
X130114285Y-94202438D02*
X130209523Y-94297676D01*
X130209523Y-94297676D02*
X130257142Y-94488152D01*
X130257142Y-94488152D02*
X130257142Y-94821485D01*
X130257142Y-94821485D02*
X130209523Y-95011961D01*
X130209523Y-95011961D02*
X130114285Y-95107200D01*
X130114285Y-95107200D02*
X130019047Y-95154819D01*
X130019047Y-95154819D02*
X129828571Y-95154819D01*
X131209523Y-95154819D02*
X130638095Y-95154819D01*
X130923809Y-95154819D02*
X130923809Y-94154819D01*
X130923809Y-94154819D02*
X130828571Y-94297676D01*
X130828571Y-94297676D02*
X130733333Y-94392914D01*
X130733333Y-94392914D02*
X130638095Y-94440533D01*
D11*
%TO.C,J1*%
X116540000Y-90855000D02*
X116540000Y-95145000D01*
X118896000Y-88440000D02*
X123304000Y-88440000D01*
X118896000Y-97560000D02*
X123304000Y-97560000D01*
X123366000Y-90300000D02*
X118399000Y-95266000D01*
X123800000Y-90734000D02*
X118834000Y-95700000D01*
X125660000Y-90855000D02*
X125660000Y-95145000D01*
X124660000Y-93000000D02*
G75*
G02*
X117540000Y-93000000I-3560000J0D01*
G01*
X117540000Y-93000000D02*
G75*
G02*
X124660000Y-93000000I3560000J0D01*
G01*
%TO.C,Q4*%
X138730000Y-62350000D02*
X132730000Y-62350000D01*
X138730000Y-67675000D02*
X132730000Y-67675000D01*
X132043173Y-63125000D02*
X131713173Y-63365000D01*
X131713173Y-62885000D01*
X132043173Y-63125000D01*
G36*
X132043173Y-63125000D02*
G01*
X131713173Y-63365000D01*
X131713173Y-62885000D01*
X132043173Y-63125000D01*
G37*
%TO.C,Q3*%
X138780000Y-98440000D02*
X132780000Y-98440000D01*
X138780000Y-103765000D02*
X132780000Y-103765000D01*
X132093173Y-99215000D02*
X131763173Y-99455000D01*
X131763173Y-98975000D01*
X132093173Y-99215000D01*
G36*
X132093173Y-99215000D02*
G01*
X131763173Y-99455000D01*
X131763173Y-98975000D01*
X132093173Y-99215000D01*
G37*
%TO.C,C2*%
X130646267Y-78190000D02*
X130353733Y-78190000D01*
X130646267Y-79210000D02*
X130353733Y-79210000D01*
%TO.C,C3*%
X133590000Y-77446267D02*
X133590000Y-77153733D01*
X134610000Y-77446267D02*
X134610000Y-77153733D01*
%TO.C,Q2*%
X138730000Y-68816000D02*
X132730000Y-68816000D01*
X138730000Y-74141000D02*
X132730000Y-74141000D01*
X132043173Y-69591000D02*
X131713173Y-69831000D01*
X131713173Y-69351000D01*
X132043173Y-69591000D01*
G36*
X132043173Y-69591000D02*
G01*
X131713173Y-69831000D01*
X131713173Y-69351000D01*
X132043173Y-69591000D01*
G37*
%TO.C,J4*%
X136905000Y-81715000D02*
X137600000Y-81715000D01*
X136905000Y-82400000D02*
X136905000Y-81715000D01*
X136905000Y-83085000D02*
X136905000Y-84960000D01*
X136905000Y-83085000D02*
X136991724Y-83085000D01*
X136905000Y-84960000D02*
X137205507Y-84960000D01*
X137994493Y-84960000D02*
X138295000Y-84960000D01*
X138208276Y-83085000D02*
X138295000Y-83085000D01*
X138295000Y-83085000D02*
X138295000Y-84960000D01*
%TO.C,C1*%
X132990000Y-88116233D02*
X132990000Y-88408767D01*
X134010000Y-88116233D02*
X134010000Y-88408767D01*
%TO.C,R2*%
X127877500Y-81767224D02*
X127877500Y-81257776D01*
X128922500Y-81767224D02*
X128922500Y-81257776D01*
%TO.C,R1*%
X127877500Y-85057776D02*
X127877500Y-85567224D01*
X128922500Y-85057776D02*
X128922500Y-85567224D01*
%TO.C,J3*%
X140940000Y-80655000D02*
X140940000Y-84945000D01*
X143296000Y-78240000D02*
X147704000Y-78240000D01*
X143296000Y-87360000D02*
X147704000Y-87360000D01*
X147766000Y-80100000D02*
X142799000Y-85066000D01*
X148200000Y-80534000D02*
X143234000Y-85500000D01*
X150060000Y-80655000D02*
X150060000Y-84945000D01*
X149060000Y-82800000D02*
G75*
G02*
X141940000Y-82800000I-3560000J0D01*
G01*
X141940000Y-82800000D02*
G75*
G02*
X149060000Y-82800000I3560000J0D01*
G01*
%TO.C,J2*%
X116540000Y-70455000D02*
X116540000Y-74745000D01*
X118896000Y-68040000D02*
X123304000Y-68040000D01*
X118896000Y-77160000D02*
X123304000Y-77160000D01*
X123366000Y-69900000D02*
X118399000Y-74866000D01*
X123800000Y-70334000D02*
X118834000Y-75300000D01*
X125660000Y-70455000D02*
X125660000Y-74745000D01*
X124660000Y-72600000D02*
G75*
G02*
X117540000Y-72600000I-3560000J0D01*
G01*
X117540000Y-72600000D02*
G75*
G02*
X124660000Y-72600000I3560000J0D01*
G01*
%TO.C,U1*%
X130555000Y-83439000D02*
X130555000Y-81939000D01*
X130555000Y-83439000D02*
X130555000Y-84939000D01*
X134875000Y-83439000D02*
X134875000Y-81939000D01*
X134875000Y-83439000D02*
X134875000Y-84939000D01*
X131205000Y-86904000D02*
X130725000Y-86904000D01*
X130965000Y-86574000D01*
X131205000Y-86904000D01*
G36*
X131205000Y-86904000D02*
G01*
X130725000Y-86904000D01*
X130965000Y-86574000D01*
X131205000Y-86904000D01*
G37*
%TO.C,Q1*%
X138730000Y-92050000D02*
X132730000Y-92050000D01*
X138730000Y-97375000D02*
X132730000Y-97375000D01*
X132043173Y-92825000D02*
X131713173Y-93065000D01*
X131713173Y-92585000D01*
X132043173Y-92825000D01*
G36*
X132043173Y-92825000D02*
G01*
X131713173Y-93065000D01*
X131713173Y-92585000D01*
X132043173Y-92825000D01*
G37*
%TD*%
M02*
