M48
; DRILL file {KiCad 8.0.1} date 2024-04-15T20:02:32-0700
; FORMAT={-:-/ absolute / inch / decimal}
; #@! TF.CreationDate,2024-04-15T20:02:32-07:00
; #@! TF.GenerationSoftware,Kicad,Pcbnew,8.0.1
; #@! TF.FileFunction,Plated,1,2,PTH
FMAT,2
INCH
; #@! TA.AperFunction,Plated,PTH,ViaDrill
T1C0.0118
; #@! TA.AperFunction,Plated,PTH,ComponentDrill
T2C0.0197
; #@! TA.AperFunction,Plated,PTH,ComponentDrill
T3C0.0630
%
G90
G05
T1
X4.6Y-2.8
X4.6Y-2.9
X4.6Y-3.1
X4.6Y-3.2
X4.6Y-3.4
X4.6Y-3.6
X4.6Y-3.7
X4.7Y-2.5
X4.7Y-2.6
X4.7Y-2.7
X4.7Y-2.8
X4.7Y-2.9
X4.7Y-3.0
X4.7Y-3.1
X4.7Y-3.2
X4.7Y-3.4
X4.7Y-3.5
X4.7Y-3.6
X4.7Y-3.7
X4.7Y-3.8
X4.7Y-3.9
X4.7Y-4.0
X4.7Y-4.1
X4.8Y-2.5
X4.8Y-2.6
X4.8Y-2.7
X4.8Y-2.8
X4.8Y-2.9
X4.8Y-3.0
X4.8Y-3.1
X4.8Y-3.2
X4.8Y-3.4
X4.8Y-3.5
X4.8Y-3.6
X4.8Y-3.7
X4.8Y-3.8
X4.8Y-3.9
X4.8Y-4.0
X4.8Y-4.1
X4.9Y-2.5
X4.9Y-2.6
X4.9Y-2.8
X4.9Y-2.9
X4.9Y-3.1
X4.9Y-3.2
X4.9Y-3.4
X4.9Y-3.6
X4.9Y-3.7
X4.9Y-3.9
X4.9Y-4.0
X4.9Y-4.1
X5.0Y-2.5
X5.0Y-2.6
X5.0Y-2.8
X5.0Y-2.9
X5.0Y-3.1
X5.0Y-3.2
X5.0Y-3.4
X5.0Y-3.6
X5.0Y-3.7
X5.0Y-3.9
X5.0Y-4.0
X5.0Y-4.1
X5.1Y-2.5
X5.1Y-2.6
X5.1Y-2.7
X5.1Y-2.8
X5.1Y-2.9
X5.1Y-3.0
X5.1Y-3.5
X5.1Y-3.6
X5.1Y-3.7
X5.1Y-3.8
X5.1Y-3.9
X5.1Y-4.0
X5.1Y-4.1
X5.185Y-3.0079
X5.185Y-3.5079
X5.2Y-3.7
X5.2Y-3.9
X5.2Y-4.0
X5.2Y-4.1
X5.2795Y-2.9528
X5.3189Y-3.5079
X5.5Y-2.5
X5.5Y-2.6
X5.5Y-2.7
X5.5Y-2.8
X5.5Y-2.9
X5.5Y-3.0
X5.5Y-3.2
X5.5Y-3.3
X5.5Y-3.5
X5.5Y-3.6
X5.5Y-3.7
X5.5Y-3.8
X5.5Y-3.9
X5.5Y-4.0
X5.5Y-4.1
X5.6Y-2.5
X5.6Y-2.6
X5.6Y-2.7
X5.6Y-2.8
X5.6Y-2.9
X5.6Y-3.0
X5.6Y-3.2
X5.6Y-3.3
X5.6Y-3.5
X5.6Y-3.6
X5.6Y-3.7
X5.6Y-3.8
X5.6Y-3.9
X5.6Y-4.0
X5.6Y-4.1
X5.7Y-2.5
X5.7Y-2.6
X5.7Y-2.7
X5.7Y-2.8
X5.7Y-2.9
X5.7Y-3.0
X5.7Y-3.1
X5.7Y-3.2
X5.7Y-3.3
X5.7Y-3.4
X5.7Y-3.5
X5.7Y-3.6
X5.7Y-3.7
X5.7Y-3.8
X5.7Y-3.9
X5.7Y-4.0
X5.7Y-4.1
X5.8Y-2.5
X5.8Y-2.6
X5.8Y-2.7
X5.8Y-2.8
X5.8Y-2.9
X5.8Y-3.0
X5.8Y-3.1
X5.8Y-3.2
X5.8Y-3.3
X5.8Y-3.4
X5.8Y-3.5
X5.8Y-3.6
X5.8Y-3.7
X5.8Y-3.8
X5.8Y-3.9
X5.8Y-4.0
X5.8Y-4.1
X5.9Y-2.6
X5.9Y-2.7
X5.9Y-2.8
X5.9Y-2.9
X5.9Y-3.0
X5.9Y-3.2
X5.9Y-3.3
X5.9Y-3.5
X5.9Y-3.6
X5.9Y-3.7
X5.9Y-3.8
X5.9Y-3.9
T2
X5.4173Y-3.2441
X5.4173Y-3.2835
X5.4173Y-3.3228
T3
X4.6102Y-2.7008
X4.6102Y-3.0157
X4.6102Y-3.5039
X4.6102Y-3.8189
X4.9252Y-2.7008
X4.9252Y-3.0157
X4.9252Y-3.5039
X4.9252Y-3.8189
X5.5709Y-3.1024
X5.5709Y-3.4173
X5.8858Y-3.1024
X5.8858Y-3.4173
M30
