%TF.GenerationSoftware,KiCad,Pcbnew,8.0.1*%
%TF.CreationDate,2024-04-15T20:02:01-07:00*%
%TF.ProjectId,Ideal OR Diode,49646561-6c20-44f5-9220-44696f64652e,1.0*%
%TF.SameCoordinates,Original*%
%TF.FileFunction,Soldermask,Top*%
%TF.FilePolarity,Negative*%
%FSLAX46Y46*%
G04 Gerber Fmt 4.6, Leading zero omitted, Abs format (unit mm)*
G04 Created by KiCad (PCBNEW 8.0.1) date 2024-04-15 20:02:01*
%MOMM*%
%LPD*%
G01*
G04 APERTURE LIST*
G04 Aperture macros list*
%AMRoundRect*
0 Rectangle with rounded corners*
0 $1 Rounding radius*
0 $2 $3 $4 $5 $6 $7 $8 $9 X,Y pos of 4 corners*
0 Add a 4 corners polygon primitive as box body*
4,1,4,$2,$3,$4,$5,$6,$7,$8,$9,$2,$3,0*
0 Add four circle primitives for the rounded corners*
1,1,$1+$1,$2,$3*
1,1,$1+$1,$4,$5*
1,1,$1+$1,$6,$7*
1,1,$1+$1,$8,$9*
0 Add four rect primitives between the rounded corners*
20,1,$1+$1,$2,$3,$4,$5,0*
20,1,$1+$1,$4,$5,$6,$7,0*
20,1,$1+$1,$6,$7,$8,$9,0*
20,1,$1+$1,$8,$9,$2,$3,0*%
G04 Aperture macros list end*
%ADD10C,3.200000*%
%ADD11RoundRect,0.162500X-0.437500X-0.162500X0.437500X-0.162500X0.437500X0.162500X-0.437500X0.162500X0*%
%ADD12R,4.500000X4.700000*%
%ADD13RoundRect,0.175000X-0.325000X-0.175000X0.325000X-0.175000X0.325000X0.175000X-0.325000X0.175000X0*%
%ADD14C,2.200000*%
%ADD15RoundRect,0.237500X0.300000X0.237500X-0.300000X0.237500X-0.300000X-0.237500X0.300000X-0.237500X0*%
%ADD16RoundRect,0.237500X0.237500X-0.300000X0.237500X0.300000X-0.237500X0.300000X-0.237500X-0.300000X0*%
%ADD17R,0.850000X0.850000*%
%ADD18O,0.850000X0.850000*%
%ADD19RoundRect,0.237500X-0.237500X0.300000X-0.237500X-0.300000X0.237500X-0.300000X0.237500X0.300000X0*%
%ADD20RoundRect,0.237500X0.237500X-0.250000X0.237500X0.250000X-0.237500X0.250000X-0.237500X-0.250000X0*%
%ADD21RoundRect,0.237500X-0.237500X0.250000X-0.237500X-0.250000X0.237500X-0.250000X0.237500X0.250000X0*%
%ADD22RoundRect,0.075000X0.075000X-0.650000X0.075000X0.650000X-0.075000X0.650000X-0.075000X-0.650000X0*%
G04 APERTURE END LIST*
D10*
%TO.C,J1*%
X117100000Y-89000000D03*
X117100000Y-97000000D03*
X125100000Y-89000000D03*
X125100000Y-97000000D03*
%TD*%
D11*
%TO.C,Q4*%
X132900000Y-63130000D03*
X132900000Y-64400000D03*
X132900000Y-65670000D03*
X132900000Y-66940000D03*
D12*
X136400000Y-65035000D03*
D13*
X138650000Y-63040000D03*
X138650000Y-64370000D03*
X138650000Y-65700000D03*
X138650000Y-67030000D03*
%TD*%
D14*
%TO.C,H3*%
X149900000Y-63800000D03*
%TD*%
D11*
%TO.C,Q3*%
X132950000Y-99220000D03*
X132950000Y-100490000D03*
X132950000Y-101760000D03*
X132950000Y-103030000D03*
D12*
X136450000Y-101125000D03*
D13*
X138700000Y-99130000D03*
X138700000Y-100460000D03*
X138700000Y-101790000D03*
X138700000Y-103120000D03*
%TD*%
D15*
%TO.C,C2*%
X131362500Y-78700000D03*
X129637500Y-78700000D03*
%TD*%
D16*
%TO.C,C3*%
X134100000Y-78162500D03*
X134100000Y-76437500D03*
%TD*%
D14*
%TO.C,H2*%
X117000000Y-102700000D03*
%TD*%
D11*
%TO.C,Q2*%
X132900000Y-69596000D03*
X132900000Y-70866000D03*
X132900000Y-72136000D03*
X132900000Y-73406000D03*
D12*
X136400000Y-71501000D03*
D13*
X138650000Y-69506000D03*
X138650000Y-70836000D03*
X138650000Y-72166000D03*
X138650000Y-73496000D03*
%TD*%
D17*
%TO.C,J4*%
X137600000Y-82400000D03*
D18*
X137600000Y-83400000D03*
X137600000Y-84400000D03*
%TD*%
D19*
%TO.C,C1*%
X133500000Y-87400000D03*
X133500000Y-89125000D03*
%TD*%
D20*
%TO.C,R2*%
X128400000Y-82425000D03*
X128400000Y-80600000D03*
%TD*%
D21*
%TO.C,R1*%
X128400000Y-84400000D03*
X128400000Y-86225000D03*
%TD*%
D10*
%TO.C,J3*%
X141500000Y-78800000D03*
X141500000Y-86800000D03*
X149500000Y-78800000D03*
X149500000Y-86800000D03*
%TD*%
%TO.C,J2*%
X117100000Y-68600000D03*
X117100000Y-76600000D03*
X125100000Y-68600000D03*
X125100000Y-76600000D03*
%TD*%
D22*
%TO.C,U1*%
X130965000Y-85589000D03*
X131465000Y-85589000D03*
X131965000Y-85589000D03*
X132465000Y-85589000D03*
X132965000Y-85589000D03*
X133465000Y-85589000D03*
X133965000Y-85589000D03*
X134465000Y-85589000D03*
X134465000Y-81289000D03*
X133965000Y-81289000D03*
X133465000Y-81289000D03*
X132965000Y-81289000D03*
X132465000Y-81289000D03*
X131965000Y-81289000D03*
X131465000Y-81289000D03*
X130965000Y-81289000D03*
%TD*%
D14*
%TO.C,H4*%
X149900000Y-102700000D03*
%TD*%
D11*
%TO.C,Q1*%
X132900000Y-92830000D03*
X132900000Y-94100000D03*
X132900000Y-95370000D03*
X132900000Y-96640000D03*
D12*
X136400000Y-94735000D03*
D13*
X138650000Y-92740000D03*
X138650000Y-94070000D03*
X138650000Y-95400000D03*
X138650000Y-96730000D03*
%TD*%
D14*
%TO.C,H1*%
X117000000Y-63800000D03*
%TD*%
M02*
